<?xml version="1.0" encoding="utf-8"?>
<svg xmlns="http://www.w3.org/2000/svg" xmlns:xlink="http://www.w3.org/1999/xlink" width="600" height="400" viewBox="0 0 2400 1600">
<defs>
  <clipPath id="clip8400">
    <rect x="0" y="0" width="2000" height="2000"/>
  </clipPath>
</defs>
<defs>
  <clipPath id="clip8401">
    <rect x="0" y="0" width="2400" height="1600"/>
  </clipPath>
</defs>
<polygon clip-path="url(#clip8401)" points="
0,1600 2400,1600 2400,0 0,0 
  " fill="#ffffff" fill-rule="evenodd" fill-opacity="1"/>
<defs>
  <clipPath id="clip8402">
    <rect x="480" y="0" width="1681" height="1600"/>
  </clipPath>
</defs>
<polygon clip-path="url(#clip8401)" points="
94.4882,1537.01 2321.26,1537.01 2321.26,47.2441 94.4882,47.2441 
  " fill="#ffffff" fill-rule="evenodd" fill-opacity="1"/>
<defs>
  <clipPath id="clip8403">
    <rect x="94" y="47" width="2228" height="1491"/>
  </clipPath>
</defs>
<polyline clip-path="url(#clip8403)" style="stroke:#000000; stroke-width:2; stroke-opacity:0.1; fill:none" points="
  157.51,1537.01 157.51,47.2441 
  "/>
<polyline clip-path="url(#clip8403)" style="stroke:#000000; stroke-width:2; stroke-opacity:0.1; fill:none" points="
  684.784,1537.01 684.784,47.2441 
  "/>
<polyline clip-path="url(#clip8403)" style="stroke:#000000; stroke-width:2; stroke-opacity:0.1; fill:none" points="
  1203.69,1537.01 1203.69,47.2441 
  "/>
<polyline clip-path="url(#clip8403)" style="stroke:#000000; stroke-width:2; stroke-opacity:0.1; fill:none" points="
  1730.96,1537.01 1730.96,47.2441 
  "/>
<polyline clip-path="url(#clip8403)" style="stroke:#000000; stroke-width:2; stroke-opacity:0.1; fill:none" points="
  2258.24,1537.01 2258.24,47.2441 
  "/>
<polyline clip-path="url(#clip8403)" style="stroke:#000000; stroke-width:2; stroke-opacity:0.1; fill:none" points="
  94.4882,1392.38 2321.26,1392.38 
  "/>
<polyline clip-path="url(#clip8403)" style="stroke:#000000; stroke-width:2; stroke-opacity:0.1; fill:none" points="
  94.4882,1184.97 2321.26,1184.97 
  "/>
<polyline clip-path="url(#clip8403)" style="stroke:#000000; stroke-width:2; stroke-opacity:0.1; fill:none" points="
  94.4882,977.554 2321.26,977.554 
  "/>
<polyline clip-path="url(#clip8403)" style="stroke:#000000; stroke-width:2; stroke-opacity:0.1; fill:none" points="
  94.4882,770.14 2321.26,770.14 
  "/>
<polyline clip-path="url(#clip8403)" style="stroke:#000000; stroke-width:2; stroke-opacity:0.1; fill:none" points="
  94.4882,562.726 2321.26,562.726 
  "/>
<polyline clip-path="url(#clip8403)" style="stroke:#000000; stroke-width:2; stroke-opacity:0.1; fill:none" points="
  94.4882,355.312 2321.26,355.312 
  "/>
<polyline clip-path="url(#clip8403)" style="stroke:#000000; stroke-width:2; stroke-opacity:0.1; fill:none" points="
  94.4882,147.898 2321.26,147.898 
  "/>
<polyline clip-path="url(#clip8401)" style="stroke:#000000; stroke-width:4; stroke-opacity:1; fill:none" points="
  94.4882,1537.01 2321.26,1537.01 
  "/>
<polyline clip-path="url(#clip8401)" style="stroke:#000000; stroke-width:4; stroke-opacity:1; fill:none" points="
  94.4882,1537.01 94.4882,47.2441 
  "/>
<polyline clip-path="url(#clip8401)" style="stroke:#000000; stroke-width:4; stroke-opacity:1; fill:none" points="
  157.51,1537.01 157.51,1514.66 
  "/>
<polyline clip-path="url(#clip8401)" style="stroke:#000000; stroke-width:4; stroke-opacity:1; fill:none" points="
  684.784,1537.01 684.784,1514.66 
  "/>
<polyline clip-path="url(#clip8401)" style="stroke:#000000; stroke-width:4; stroke-opacity:1; fill:none" points="
  1203.69,1537.01 1203.69,1514.66 
  "/>
<polyline clip-path="url(#clip8401)" style="stroke:#000000; stroke-width:4; stroke-opacity:1; fill:none" points="
  1730.96,1537.01 1730.96,1514.66 
  "/>
<polyline clip-path="url(#clip8401)" style="stroke:#000000; stroke-width:4; stroke-opacity:1; fill:none" points="
  2258.24,1537.01 2258.24,1514.66 
  "/>
<polyline clip-path="url(#clip8401)" style="stroke:#000000; stroke-width:4; stroke-opacity:1; fill:none" points="
  94.4882,1392.38 127.89,1392.38 
  "/>
<polyline clip-path="url(#clip8401)" style="stroke:#000000; stroke-width:4; stroke-opacity:1; fill:none" points="
  94.4882,1184.97 127.89,1184.97 
  "/>
<polyline clip-path="url(#clip8401)" style="stroke:#000000; stroke-width:4; stroke-opacity:1; fill:none" points="
  94.4882,977.554 127.89,977.554 
  "/>
<polyline clip-path="url(#clip8401)" style="stroke:#000000; stroke-width:4; stroke-opacity:1; fill:none" points="
  94.4882,770.14 127.89,770.14 
  "/>
<polyline clip-path="url(#clip8401)" style="stroke:#000000; stroke-width:4; stroke-opacity:1; fill:none" points="
  94.4882,562.726 127.89,562.726 
  "/>
<polyline clip-path="url(#clip8401)" style="stroke:#000000; stroke-width:4; stroke-opacity:1; fill:none" points="
  94.4882,355.312 127.89,355.312 
  "/>
<polyline clip-path="url(#clip8401)" style="stroke:#000000; stroke-width:4; stroke-opacity:1; fill:none" points="
  94.4882,147.898 127.89,147.898 
  "/>
<g clip-path="url(#clip8401)">
<text style="fill:#000000; fill-opacity:1; font-family:Arial,Helvetica Neue,Helvetica,sans-serif; font-size:48px; text-anchor:middle;" transform="rotate(0, 157.51, 1591.01)" x="157.51" y="1591.01">2018-03-21</text>
</g>
<g clip-path="url(#clip8401)">
<text style="fill:#000000; fill-opacity:1; font-family:Arial,Helvetica Neue,Helvetica,sans-serif; font-size:48px; text-anchor:middle;" transform="rotate(0, 684.784, 1591.01)" x="684.784" y="1591.01">2018-06-20</text>
</g>
<g clip-path="url(#clip8401)">
<text style="fill:#000000; fill-opacity:1; font-family:Arial,Helvetica Neue,Helvetica,sans-serif; font-size:48px; text-anchor:middle;" transform="rotate(0, 1203.69, 1591.01)" x="1203.69" y="1591.01">2018-09-18</text>
</g>
<g clip-path="url(#clip8401)">
<text style="fill:#000000; fill-opacity:1; font-family:Arial,Helvetica Neue,Helvetica,sans-serif; font-size:48px; text-anchor:middle;" transform="rotate(0, 1730.96, 1591.01)" x="1730.96" y="1591.01">2018-12-17</text>
</g>
<g clip-path="url(#clip8401)">
<text style="fill:#000000; fill-opacity:1; font-family:Arial,Helvetica Neue,Helvetica,sans-serif; font-size:48px; text-anchor:middle;" transform="rotate(0, 2258.24, 1591.01)" x="2258.24" y="1591.01">2019-03-20</text>
</g>
<g clip-path="url(#clip8401)">
<text style="fill:#000000; fill-opacity:1; font-family:Arial,Helvetica Neue,Helvetica,sans-serif; font-size:48px; text-anchor:end;" transform="rotate(0, 70.4882, 1409.88)" x="70.4882" y="1409.88">45</text>
</g>
<g clip-path="url(#clip8401)">
<text style="fill:#000000; fill-opacity:1; font-family:Arial,Helvetica Neue,Helvetica,sans-serif; font-size:48px; text-anchor:end;" transform="rotate(0, 70.4882, 1202.47)" x="70.4882" y="1202.47">50</text>
</g>
<g clip-path="url(#clip8401)">
<text style="fill:#000000; fill-opacity:1; font-family:Arial,Helvetica Neue,Helvetica,sans-serif; font-size:48px; text-anchor:end;" transform="rotate(0, 70.4882, 995.054)" x="70.4882" y="995.054">55</text>
</g>
<g clip-path="url(#clip8401)">
<text style="fill:#000000; fill-opacity:1; font-family:Arial,Helvetica Neue,Helvetica,sans-serif; font-size:48px; text-anchor:end;" transform="rotate(0, 70.4882, 787.64)" x="70.4882" y="787.64">60</text>
</g>
<g clip-path="url(#clip8401)">
<text style="fill:#000000; fill-opacity:1; font-family:Arial,Helvetica Neue,Helvetica,sans-serif; font-size:48px; text-anchor:end;" transform="rotate(0, 70.4882, 580.226)" x="70.4882" y="580.226">65</text>
</g>
<g clip-path="url(#clip8401)">
<text style="fill:#000000; fill-opacity:1; font-family:Arial,Helvetica Neue,Helvetica,sans-serif; font-size:48px; text-anchor:end;" transform="rotate(0, 70.4882, 372.812)" x="70.4882" y="372.812">70</text>
</g>
<g clip-path="url(#clip8401)">
<text style="fill:#000000; fill-opacity:1; font-family:Arial,Helvetica Neue,Helvetica,sans-serif; font-size:48px; text-anchor:end;" transform="rotate(0, 70.4882, 165.398)" x="70.4882" y="165.398">75</text>
</g>
<polyline clip-path="url(#clip8403)" style="stroke:#000000; stroke-width:12; stroke-opacity:1; fill:none" points="
  157.51,555.674 165.879,591.764 174.249,526.221 182.618,539.911 190.988,552.355 199.357,588.445 207.727,565.215 216.096,645.277 224.466,624.535 232.835,630.343 
  241.204,623.291 249.574,684.686 257.943,628.269 266.313,541.57 274.682,487.227 283.052,476.857 291.421,463.582 299.79,512.117 308.16,499.672 316.529,418.781 
  324.899,426.248 333.268,422.514 341.638,411.729 350.007,450.722 358.376,436.203 366.746,430.396 375.115,434.129 383.485,414.632 391.854,469.39 400.224,441.181 
  408.593,420.44 416.962,366.927 425.332,325.03 433.701,394.306 442.071,308.022 450.44,298.895 458.81,326.274 467.179,315.489 475.549,300.97 483.918,293.503 
  492.287,293.503 500.657,302.214 509.026,262.391 517.396,266.954 525.765,278.984 534.135,325.859 542.504,443.256 550.873,490.961 559.243,429.566 567.612,478.101 
  575.982,529.125 584.351,573.097 592.721,541.155 601.09,573.926 609.459,523.317 617.829,532.029 626.198,517.095 634.568,506.309 642.937,494.694 651.307,484.324 
  659.676,560.237 668.046,527.466 676.415,559.822 684.784,512.117 693.154,540.325 701.523,414.218 709.893,434.959 718.262,333.326 726.632,240.819 735.001,212.196 
  743.37,183.158 751.74,191.87 760.109,183.573 768.479,233.353 776.848,197.677 785.218,195.603 793.587,184.818 801.956,339.549 810.326,341.623 818.695,313.414 
  827.065,435.789 835.434,434.959 843.804,406.751 852.173,377.713 860.542,336.23 868.912,442.841 877.281,416.707 885.651,384.35 894.02,371.49 902.39,409.654 
  910.759,349.919 919.129,406.751 927.498,452.382 935.867,398.454 944.237,417.951 952.606,396.38 960.976,389.743 969.345,482.249 977.715,487.642 986.084,453.626 
  994.453,471.464 1002.82,478.101 1011.19,562.311 1019.56,543.644 1027.93,524.977 1036.3,503.406 1044.67,465.241 1053.04,444.085 1061.41,445.33 1069.78,408.41 
  1078.15,402.188 1086.52,416.292 1094.89,375.639 1103.26,344.941 1111.63,363.609 1119.99,360.705 1128.36,408.41 1136.73,447.819 1145.1,448.648 1153.47,457.36 
  1161.84,386.424 1170.21,339.963 1178.58,413.803 1186.95,397.21 1195.32,400.528 1203.69,361.534 1212.06,308.851 1220.43,322.126 1228.8,322.955 1237.17,269.028 
  1245.54,260.731 1253.91,290.184 1262.28,267.368 1270.64,220.493 1279.01,135.453 1287.38,138.357 1295.75,89.4072 1304.12,175.691 1312.49,175.277 1320.86,177.351 
  1329.23,149.557 1337.6,223.812 1345.97,315.074 1354.34,299.725 1362.71,281.473 1371.08,275.665 1379.45,365.683 1387.82,411.314 1396.19,391.817 1404.56,389.743 
  1412.93,503.406 1421.29,487.227 1429.66,466.071 1438.03,455.286 1446.4,478.101 1454.77,513.776 1463.14,549.866 1471.51,617.069 1479.88,639.884 1488.25,641.543 
  1496.62,678.463 1504.99,700.864 1513.36,742.347 1521.73,762.258 1530.1,773.044 1538.47,948.931 1546.84,925.701 1555.21,916.989 1563.57,916.989 1571.94,904.544 
  1580.31,1042.68 1588.68,992.903 1597.05,1167.55 1605.42,1117.35 1613.79,1120.25 1622.16,1172.94 1630.53,1124.82 1638.9,1146.39 1647.27,1062.59 1655.64,1050.15 
  1664.01,1065.08 1672.38,1123.16 1680.75,1076.7 1689.12,1143.49 1697.49,1116.52 1705.86,1137.26 1714.22,1077.94 1722.59,1135.19 1730.96,1189.95 1739.33,1340.94 
  1747.7,1301.12 1756.07,1355.88 1764.44,1367.91 1772.81,1494.84 1781.18,1341.77 1789.55,1408.56 1797.92,1378.69 1806.29,1375.37 1814.66,1328.5 1823.03,1305.68 
  1831.4,1269.59 1839.77,1246.36 1848.14,1194.09 1856.51,1087.07 1864.87,1077.53 1873.24,1119.01 1881.61,1163.81 1889.98,1097.44 1898.35,1089.14 1906.72,1099.1 
  1915.09,1027.33 1923.46,1078.36 1931.83,1076.28 1940.2,1055.13 1948.57,1031.9 1956.94,1102.42 1965.31,1047.66 1973.68,1009.5 1982.05,1027.75 1990.42,966.769 
  1998.79,995.807 2007.15,1033.14 2015.52,1018.62 2023.89,1075.45 2032.26,1072.13 2040.63,1084.99 2049,1056.37 2057.37,1023.19 2065.74,1002.03 2074.11,953.079 
  2082.48,932.338 2090.85,897.907 2099.22,896.248 2107.59,883.803 2115.96,957.642 2124.33,956.813 2132.7,897.077 2141.07,885.462 2149.44,944.368 2157.8,911.596 
  2166.17,912.841 2174.54,926.945 2182.91,908.693 2191.28,933.168 2199.65,903.3 2208.02,899.981 2216.39,842.32 2224.76,827.801 2233.13,831.535 2241.5,807.889 
  2249.87,810.378 2258.24,777.192 
  "/>
<polyline clip-path="url(#clip8403)" style="stroke:#e26f46; stroke-width:8; stroke-opacity:1; fill:none" points="
  483.918,471.07 492.287,464.516 500.657,457.277 509.026,450.681 517.396,443.857 525.765,437.023 534.135,430.458 542.504,427.409 550.873,423.551 559.243,418.677 
  567.612,414.871 575.982,412.517 584.351,409.727 592.721,407.549 601.09,408.358 609.459,409.26 617.829,410.64 626.198,411.978 634.568,411.832 642.937,411.708 
  651.307,413.346 659.676,416.696 668.046,419.32 676.415,423.022 684.784,424.557 693.154,427.16 701.523,426.756 709.893,426.777 718.262,424.744 726.632,419.03 
  735.001,413.305 743.37,407.373 751.74,402.997 760.109,399.46 768.479,395.436 776.848,392.678 785.218,390.095 793.587,386.559 801.956,387.16 810.326,388.177 
  818.695,388.675 827.065,392.232 835.434,395.55 843.804,399.159 852.173,401.928 860.542,403.359 868.912,406.284 877.281,405.62 885.651,402.955 894.02,401.503 
  902.39,399.792 910.759,395.312 919.129,391.153 927.498,388.934 935.867,384.547 944.237,381.913 952.606,378.522 960.976,375.338 969.345,374.736 977.715,374.56 
  986.084,373.793 994.453,371.573 1002.82,370.339 1011.19,370.401 1019.56,371.19 1027.93,370.806 1036.3,373.036 1044.67,373.793 1053.04,376.562 1061.41,381.674 
  1069.78,386.58 1078.15,392.055 1086.52,397.666 1094.89,402.468 1103.26,405.257 1111.63,409.406 1119.99,413.533 1128.36,419.123 1136.73,421.83 1145.1,424.505 
  1153.47,428.104 1161.84,426.87 1170.21,424.495 1178.58,424.671 1186.95,425.159 1195.32,426.766 1203.69,424.733 1212.06,422.037 1220.43,420.482 1228.8,419.268 
  1237.17,415.752 1245.54,413.523 1253.91,410.609 1262.28,405.983 1270.64,401.534 1279.01,394.472 1287.38,388.021 1295.75,380.513 1304.12,372.849 1312.49,365.04 
  1320.86,358.133 1329.23,350.085 1337.6,343.728 1345.97,337.547 1354.34,331.449 1362.71,325.361 1371.08,319.668 1379.45,317.179 1387.82,316.36 1396.19,315.022 
  1404.56,314.555 1412.93,317.086 1421.29,318.859 1429.66,321.12 1438.03,323.878 1446.4,326.741 1454.77,330.568 1463.14,334.104 1471.51,338.335 1479.88,343.116 
  1488.25,347.721 1496.62,355.022 1504.99,364.044 1513.36,372.258 1521.73,381.384 1530.1,390.697 1538.47,405.382 1546.84,420.803 1555.21,435.675 1563.57,450.525 
  1571.94,466.413 1580.31,485.962 1588.68,503.53 1597.05,526.035 1605.42,548.456 1613.79,573.076 1622.16,598.941 1630.53,624.826 1638.9,649.093 1647.27,671.276 
  1655.64,693.096 1664.01,715.984 1672.38,738.468 1680.75,757.509 1689.12,778.603 1697.49,799.479 1705.86,821.019 1714.22,838.825 1722.59,856.922 1730.96,876.875 
  1739.33,900.655 1747.7,920.598 1756.07,942.314 1764.44,964.86 1772.81,990.849 1781.18,1012.44 1789.55,1034.81 1797.92,1055.53 1806.29,1074.49 1814.66,1091.7 
  1823.03,1108.31 1831.4,1123.09 1839.77,1136.72 1848.14,1148.02 1856.51,1156.14 1864.87,1163.75 1873.24,1168 1881.61,1173.95 1889.98,1178.47 1898.35,1182.77 
  1906.72,1187.63 1915.09,1187.25 1923.46,1189.39 1931.83,1187.1 1940.2,1185.55 1948.57,1183.34 1956.94,1181.58 1965.31,1179.65 1973.68,1176.23 1982.05,1175.35 
  1990.42,1173.27 1998.79,1171.54 2007.15,1169.29 2015.52,1167.84 2023.89,1166.13 2032.26,1165.03 2040.63,1163.72 2049,1163.18 2057.37,1160.38 2065.74,1155.68 
  2074.11,1145.98 2082.48,1136.77 2090.85,1125.32 2099.22,1113.52 2107.59,1098.25 2115.96,1088.65 2124.33,1077.35 2132.7,1065.31 2141.07,1053.06 2149.44,1043.46 
  2157.8,1033.61 2166.17,1024.69 2174.54,1016.7 2182.91,1009.57 2191.28,1005.72 2199.65,1001.37 2208.02,995.89 2216.39,987.852 2224.76,981.111 2233.13,974.671 
  2241.5,967.391 2249.87,961.967 2258.24,954.438 
  "/>
<polyline clip-path="url(#clip8403)" style="stroke:#3da44d; stroke-width:8; stroke-opacity:1; fill:none" points="
  483.918,471.07 492.287,462.408 500.657,454.594 509.026,445.218 517.396,436.522 525.765,428.837 534.135,423.814 542.504,424.762 550.873,427.992 559.243,428.068 
  567.612,430.509 575.982,435.319 584.351,442.04 592.721,446.875 601.09,453.073 609.459,456.499 617.829,460.184 626.198,462.96 634.568,465.075 642.937,466.519 
  651.307,467.388 659.676,471.917 668.046,474.627 676.415,478.783 684.784,480.409 693.154,483.331 701.523,479.96 709.893,477.765 718.262,470.719 726.632,459.504 
  735.001,447.441 743.37,434.549 751.74,422.711 760.109,411.046 768.479,402.378 776.848,392.392 785.218,382.793 793.587,373.135 801.956,371.497 810.326,370.04 
  818.695,367.278 827.065,370.62 835.434,373.758 843.804,375.367 852.173,375.482 860.542,373.567 868.912,376.946 877.281,378.886 885.651,379.152 894.02,378.779 
  902.39,380.285 910.759,378.804 919.129,380.167 927.498,383.69 935.867,384.41 944.237,386.046 952.606,386.55 960.976,386.706 969.345,391.366 977.715,396.063 
  986.084,398.871 994.453,402.412 1002.82,406.104 1011.19,413.724 1019.56,420.061 1027.93,425.179 1036.3,428.995 1044.67,430.763 1053.04,431.413 1061.41,432.092 
  1069.78,430.937 1078.15,429.534 1086.52,428.888 1094.89,426.291 1103.26,422.323 1111.63,419.459 1119.99,416.592 1128.36,416.193 1136.73,417.736 1145.1,419.244 
  1153.47,421.103 1161.84,419.412 1170.21,415.536 1178.58,415.452 1186.95,414.562 1195.32,413.877 1203.69,411.324 1212.06,406.325 1220.43,402.218 1228.8,398.351 
  1237.17,392.043 1245.54,385.637 1253.91,380.981 1262.28,375.439 1270.64,367.881 1279.01,356.543 1287.38,345.9 1295.75,333.388 1304.12,325.695 1312.49,318.358 
  1320.86,311.479 1329.23,303.581 1337.6,299.69 1345.97,300.44 1354.34,300.405 1362.71,299.482 1371.08,298.32 1379.45,301.606 1387.82,306.957 1396.19,311.097 
  1404.56,314.933 1412.93,324.127 1421.29,332.083 1429.66,338.619 1438.03,344.31 1446.4,350.837 1454.77,358.785 1463.14,368.106 1471.51,380.25 1479.88,392.916 
  1488.25,405.044 1496.62,418.381 1504.99,432.161 1513.36,447.292 1521.73,462.656 1530.1,477.797 1538.47,500.779 1546.84,521.507 1555.21,540.799 1563.57,559.15 
  1571.94,575.998 1580.31,598.763 1588.68,617.989 1597.05,644.797 1605.42,667.849 1613.79,689.917 1622.16,713.479 1630.53,733.544 1638.9,753.683 1647.27,768.752 
  1655.64,782.479 1664.01,796.264 1672.38,812.21 1680.75,825.112 1689.12,840.643 1697.49,854.1 1705.86,867.913 1714.22,878.158 1722.59,890.696 1730.96,905.294 
  1739.33,926.545 1747.7,944.817 1756.07,964.869 1764.44,984.529 1772.81,1009.42 1781.18,1025.63 1789.55,1044.31 1797.92,1060.63 1806.29,1075.98 1814.66,1088.3 
  1823.03,1098.9 1831.4,1107.23 1839.77,1114.01 1848.14,1117.92 1856.51,1116.42 1864.87,1114.52 1873.24,1114.74 1881.61,1117.13 1889.98,1116.17 1898.35,1114.85 
  1906.72,1114.08 1915.09,1109.85 1923.46,1108.32 1931.83,1106.75 1940.2,1104.24 1948.57,1100.71 1956.94,1100.79 1965.31,1098.2 1973.68,1093.87 1982.05,1090.65 
  1990.42,1084.6 1998.79,1080.27 2007.15,1077.97 2015.52,1075.08 2023.89,1075.1 2032.26,1074.95 2040.63,1075.44 2049,1074.51 2057.37,1072.01 2065.74,1068.59 
  2074.11,1062.96 2082.48,1056.59 2090.85,1048.85 2099.22,1041.4 2107.59,1033.71 2115.96,1030 2124.33,1026.43 2132.7,1020.12 2141.07,1013.55 2149.44,1010.18 
  2157.8,1005.37 2166.17,1000.86 2174.54,997.252 2182.91,992.932 2191.28,990.017 2199.65,985.786 2208.02,981.601 2216.39,974.807 2224.76,967.636 2233.13,960.997 
  2241.5,953.528 2249.87,946.545 2258.24,938.284 
  "/>
<polyline clip-path="url(#clip8403)" style="stroke:#c271d2; stroke-width:8; stroke-opacity:1; fill:none" points="
  483.918,417.484 492.287,408.822 500.657,400.905 509.026,391.398 517.396,382.436 525.765,374.393 534.135,368.97 542.504,369.595 550.873,372.695 559.243,372.988 
  567.612,375.887 575.982,381.46 584.351,389.294 592.721,395.705 601.09,403.821 609.459,409.428 617.829,415.417 626.198,420.61 634.568,425.212 642.937,429.254 
  651.307,432.796 659.676,439.961 668.046,445.365 676.415,452.218 684.784,456.564 693.154,462.212 701.523,461.58 709.893,461.981 718.262,457.422 726.632,448.45 
  735.001,438.361 743.37,427.134 751.74,416.622 760.109,405.918 768.479,397.815 776.848,388.168 785.218,378.555 793.587,368.541 801.956,366.248 810.326,364.027 
  818.695,360.38 827.065,362.678 835.434,364.763 843.804,365.309 852.173,364.263 860.542,361.058 868.912,362.984 877.281,363.492 885.651,362.455 894.02,360.92 
  902.39,361.317 910.759,358.885 919.129,359.443 927.498,362.429 935.867,362.894 944.237,364.523 952.606,365.229 960.976,365.776 969.345,370.992 977.715,376.499 
  986.084,380.356 994.453,385.12 1002.82,390.317 1011.19,399.681 1019.56,408.132 1027.93,415.634 1036.3,422.102 1044.67,426.6 1053.04,430.029 1061.41,433.384 
  1069.78,434.688 1078.15,435.449 1086.52,436.631 1094.89,435.557 1103.26,432.751 1111.63,430.719 1119.99,428.344 1128.36,428.094 1136.73,429.493 1145.1,430.802 
  1153.47,432.404 1161.84,430.371 1170.21,426.132 1178.58,425.61 1186.95,424.271 1195.32,423.069 1203.69,419.887 1212.06,414.234 1220.43,409.361 1228.8,404.603 
  1237.17,397.274 1245.54,389.712 1253.91,383.696 1262.28,376.709 1270.64,367.66 1279.01,354.681 1287.38,342.187 1295.75,327.621 1304.12,317.629 1312.49,307.992 
  1320.86,298.836 1329.23,288.662 1337.6,282.502 1345.97,281.104 1354.34,279.259 1362.71,276.821 1371.08,274.397 1379.45,276.642 1387.82,281.234 1396.19,284.915 
  1404.56,288.56 1412.93,297.772 1421.29,306.071 1429.66,313.252 1438.03,319.797 1446.4,327.32 1454.77,336.444 1463.14,347.141 1471.51,360.945 1479.88,375.654 
  1488.25,390.212 1496.62,406.345 1504.99,423.216 1513.36,441.67 1521.73,460.694 1530.1,479.799 1538.47,507.03 1546.84,532.412 1555.21,556.616 1563.57,580.095 
  1571.94,602.242 1580.31,630.353 1588.68,655.081 1597.05,687.472 1605.42,716.317 1613.79,744.21 1622.16,773.471 1630.53,799.124 1638.9,824.566 1647.27,844.737 
  1655.64,863.218 1664.01,881.364 1672.38,901.226 1680.75,917.725 1689.12,936.553 1697.49,953.037 1705.86,969.515 1714.22,982.047 1722.59,996.504 1730.96,1012.75 
  1739.33,1035.39 1747.7,1054.92 1756.07,1076.15 1764.44,1096.92 1772.81,1122.77 1781.18,1139.89 1789.55,1159.21 1797.92,1175.98 1806.29,1191.59 1814.66,1203.98 
  1823.03,1214.41 1831.4,1222.28 1839.77,1228.3 1848.14,1231.09 1856.51,1228.12 1864.87,1224.29 1873.24,1222.1 1881.61,1221.9 1889.98,1218.17 1898.35,1213.81 
  1906.72,1209.73 1915.09,1201.91 1923.46,1196.6 1931.83,1191.08 1940.2,1184.64 1948.57,1177.15 1956.94,1173.2 1965.31,1166.67 1973.68,1158.37 1982.05,1151.12 
  1990.42,1140.95 1998.79,1132.29 2007.15,1125.54 2015.52,1118.19 2023.89,1113.69 2032.26,1109.1 2040.63,1105.2 2049,1099.96 2057.37,1093.13 2065.74,1085.41 
  2074.11,1075.52 2082.48,1065.1 2090.85,1053.45 2099.22,1042.28 2107.59,1031.07 2115.96,1024.21 2124.33,1017.78 2132.7,1008.99 2141.07,1000.21 2149.44,994.911 
  2157.8,988.479 2166.17,982.588 2174.54,977.82 2182.91,972.551 2191.28,968.824 2199.65,963.828 2208.02,958.882 2216.39,951.391 2224.76,943.584 2233.13,936.287 
  2241.5,928.152 2249.87,920.493 2258.24,911.479 
  "/>
<polyline clip-path="url(#clip8403)" style="stroke:#ac8d18; stroke-width:8; stroke-opacity:1; fill:none" points="
  810.326,417.94 818.695,415.88 827.065,414.073 835.434,412.53 843.804,411.242 852.173,410.194 860.542,409.352 868.912,408.748 877.281,408.203 885.651,407.688 
  894.02,407.259 902.39,406.882 910.759,406.452 919.129,405.987 927.498,405.522 935.867,404.927 944.237,404.243 952.606,403.44 960.976,402.524 969.345,401.597 
  977.715,400.668 986.084,399.679 994.453,398.551 1002.82,397.327 1011.19,396.011 1019.56,394.677 1027.93,393.268 1036.3,391.925 1044.67,390.6 1053.04,389.396 
  1061.41,388.462 1069.78,387.794 1078.15,387.411 1086.52,387.278 1094.89,387.353 1103.26,387.598 1111.63,388.017 1119.99,388.602 1128.36,389.417 1136.73,390.283 
  1145.1,391.192 1153.47,392.177 1161.84,393.043 1170.21,393.767 1178.58,394.405 1186.95,394.985 1195.32,395.571 1203.69,396.032 1212.06,396.442 1220.43,396.88 
  1228.8,397.325 1237.17,397.724 1245.54,398.179 1253.91,398.665 1262.28,399.091 1270.64,399.516 1279.01,399.83 1287.38,400.068 1295.75,400.197 1304.12,400.15 
  1312.49,399.912 1320.86,399.52 1329.23,398.983 1337.6,398.318 1345.97,397.496 1354.34,396.503 1362.71,395.367 1371.08,394.033 1379.45,392.617 1387.82,391.112 
  1396.19,389.446 1404.56,387.645 1412.93,385.771 1421.29,383.801 1429.66,381.767 1438.03,379.733 1446.4,377.666 1454.77,375.592 1463.14,373.466 1471.51,371.379 
  1479.88,369.344 1488.25,367.335 1496.62,365.539 1504.99,364.027 1513.36,362.717 1521.73,361.623 1530.1,360.721 1538.47,360.237 1546.84,360.206 1555.21,360.586 
  1563.57,361.367 1571.94,362.634 1580.31,364.445 1588.68,366.768 1597.05,369.769 1605.42,373.442 1613.79,377.907 1622.16,383.18 1630.53,389.288 1638.9,396.194 
  1647.27,403.85 1655.64,412.224 1664.01,421.372 1672.38,431.24 1680.75,441.739 1689.12,452.918 1697.49,464.771 1705.86,477.305 1714.22,490.346 1722.59,503.86 
  1730.96,517.906 1739.33,532.559 1747.7,547.647 1756.07,563.233 1764.44,579.327 1772.81,596.001 1781.18,613.143 1789.55,630.75 1797.92,648.785 1806.29,667.189 
  1814.66,685.904 1823.03,704.918 1831.4,724.12 1839.77,743.437 1848.14,762.831 1856.51,782.2 1864.87,801.526 1873.24,820.592 1881.61,839.421 1889.98,857.99 
  1898.35,876.296 1906.72,894.327 1915.09,911.859 1923.46,929.006 1931.83,945.532 1940.2,961.46 1948.57,976.716 1956.94,991.282 1965.31,1005.15 1973.68,1018.33 
  1982.05,1030.93 1990.42,1042.94 1998.79,1054.33 2007.15,1065.1 2015.52,1075.35 2023.89,1085.04 2032.26,1094.18 2040.63,1102.75 2049,1110.86 2057.37,1118.44 
  2065.74,1125.41 2074.11,1131.55 2082.48,1136.95 2090.85,1141.53 2099.22,1145.24 2107.59,1147.93 2115.96,1149.83 2124.33,1150.9 2132.7,1151.14 2141.07,1150.61 
  2149.44,1149.4 2157.8,1147.53 2166.17,1145.07 2174.54,1142.07 2182.91,1138.61 2191.28,1134.85 2199.65,1130.79 2208.02,1126.49 2216.39,1121.84 2224.76,1116.9 
  2233.13,1111.7 2241.5,1106.19 2249.87,1100.56 2258.24,1094.69 
  "/>
<polygon clip-path="url(#clip8401)" points="
1859.52,493.644 2249.26,493.644 2249.26,130.764 1859.52,130.764 
  " fill="#ffffff" fill-rule="evenodd" fill-opacity="1"/>
<polyline clip-path="url(#clip8401)" style="stroke:#000000; stroke-width:4; stroke-opacity:1; fill:none" points="
  1859.52,493.644 2249.26,493.644 2249.26,130.764 1859.52,130.764 1859.52,493.644 
  "/>
<polyline clip-path="url(#clip8401)" style="stroke:#000000; stroke-width:12; stroke-opacity:1; fill:none" points="
  1883.52,191.244 2027.52,191.244 
  "/>
<g clip-path="url(#clip8401)">
<text style="fill:#000000; fill-opacity:1; font-family:Arial,Helvetica Neue,Helvetica,sans-serif; font-size:48px; text-anchor:start;" transform="rotate(0, 2051.52, 208.744)" x="2051.52" y="208.744">Crude</text>
</g>
<polyline clip-path="url(#clip8401)" style="stroke:#e26f46; stroke-width:8; stroke-opacity:1; fill:none" points="
  1883.52,251.724 2027.52,251.724 
  "/>
<g clip-path="url(#clip8401)">
<text style="fill:#000000; fill-opacity:1; font-family:Arial,Helvetica Neue,Helvetica,sans-serif; font-size:48px; text-anchor:start;" transform="rotate(0, 2051.52, 269.224)" x="2051.52" y="269.224">SMA</text>
</g>
<polyline clip-path="url(#clip8401)" style="stroke:#3da44d; stroke-width:8; stroke-opacity:1; fill:none" points="
  1883.52,312.204 2027.52,312.204 
  "/>
<g clip-path="url(#clip8401)">
<text style="fill:#000000; fill-opacity:1; font-family:Arial,Helvetica Neue,Helvetica,sans-serif; font-size:48px; text-anchor:start;" transform="rotate(0, 2051.52, 329.704)" x="2051.52" y="329.704">EMA</text>
</g>
<polyline clip-path="url(#clip8401)" style="stroke:#c271d2; stroke-width:8; stroke-opacity:1; fill:none" points="
  1883.52,372.684 2027.52,372.684 
  "/>
<g clip-path="url(#clip8401)">
<text style="fill:#000000; fill-opacity:1; font-family:Arial,Helvetica Neue,Helvetica,sans-serif; font-size:48px; text-anchor:start;" transform="rotate(0, 2051.52, 390.184)" x="2051.52" y="390.184">WMA</text>
</g>
<polyline clip-path="url(#clip8401)" style="stroke:#ac8d18; stroke-width:8; stroke-opacity:1; fill:none" points="
  1883.52,433.164 2027.52,433.164 
  "/>
<g clip-path="url(#clip8401)">
<text style="fill:#000000; fill-opacity:1; font-family:Arial,Helvetica Neue,Helvetica,sans-serif; font-size:48px; text-anchor:start;" transform="rotate(0, 2051.52, 450.664)" x="2051.52" y="450.664">TRIMA</text>
</g>
</svg>
