<?xml version="1.0" encoding="utf-8"?>
<svg xmlns="http://www.w3.org/2000/svg" xmlns:xlink="http://www.w3.org/1999/xlink" width="600" height="400" viewBox="0 0 2400 1600">
<defs>
  <clipPath id="clip9800">
    <rect x="0" y="0" width="2400" height="1600"/>
  </clipPath>
</defs>
<polygon clip-path="url(#clip9800)" points="
0,1600 2400,1600 2400,0 0,0 
  " fill="#ffffff" fill-rule="evenodd" fill-opacity="1"/>
<defs>
  <clipPath id="clip9801">
    <rect x="480" y="0" width="1681" height="1600"/>
  </clipPath>
</defs>
<polygon clip-path="url(#clip9800)" points="
86.9921,657.89 2352.76,657.89 2352.76,47.2441 86.9921,47.2441 
  " fill="#ffffff" fill-rule="evenodd" fill-opacity="1"/>
<defs>
  <clipPath id="clip9802">
    <rect x="86" y="47" width="2267" height="612"/>
  </clipPath>
</defs>
<polyline clip-path="url(#clip9802)" style="stroke:#000000; stroke-width:2; stroke-opacity:0.1; fill:none" points="
  151.118,657.89 151.118,47.2441 
  "/>
<polyline clip-path="url(#clip9802)" style="stroke:#000000; stroke-width:2; stroke-opacity:0.1; fill:none" points="
  687.625,657.89 687.625,47.2441 
  "/>
<polyline clip-path="url(#clip9802)" style="stroke:#000000; stroke-width:2; stroke-opacity:0.1; fill:none" points="
  1215.62,657.89 1215.62,47.2441 
  "/>
<polyline clip-path="url(#clip9802)" style="stroke:#000000; stroke-width:2; stroke-opacity:0.1; fill:none" points="
  1752.12,657.89 1752.12,47.2441 
  "/>
<polyline clip-path="url(#clip9802)" style="stroke:#000000; stroke-width:2; stroke-opacity:0.1; fill:none" points="
  2288.63,657.89 2288.63,47.2441 
  "/>
<polyline clip-path="url(#clip9802)" style="stroke:#000000; stroke-width:2; stroke-opacity:0.1; fill:none" points="
  86.9921,598.609 2352.76,598.609 
  "/>
<polyline clip-path="url(#clip9802)" style="stroke:#000000; stroke-width:2; stroke-opacity:0.1; fill:none" points="
  86.9921,513.591 2352.76,513.591 
  "/>
<polyline clip-path="url(#clip9802)" style="stroke:#000000; stroke-width:2; stroke-opacity:0.1; fill:none" points="
  86.9921,428.573 2352.76,428.573 
  "/>
<polyline clip-path="url(#clip9802)" style="stroke:#000000; stroke-width:2; stroke-opacity:0.1; fill:none" points="
  86.9921,343.555 2352.76,343.555 
  "/>
<polyline clip-path="url(#clip9802)" style="stroke:#000000; stroke-width:2; stroke-opacity:0.1; fill:none" points="
  86.9921,258.537 2352.76,258.537 
  "/>
<polyline clip-path="url(#clip9802)" style="stroke:#000000; stroke-width:2; stroke-opacity:0.1; fill:none" points="
  86.9921,173.519 2352.76,173.519 
  "/>
<polyline clip-path="url(#clip9802)" style="stroke:#000000; stroke-width:2; stroke-opacity:0.1; fill:none" points="
  86.9921,88.5015 2352.76,88.5015 
  "/>
<polyline clip-path="url(#clip9800)" style="stroke:#000000; stroke-width:4; stroke-opacity:1; fill:none" points="
  86.9921,657.89 2352.76,657.89 
  "/>
<polyline clip-path="url(#clip9800)" style="stroke:#000000; stroke-width:4; stroke-opacity:1; fill:none" points="
  86.9921,657.89 86.9921,47.2441 
  "/>
<polyline clip-path="url(#clip9800)" style="stroke:#000000; stroke-width:4; stroke-opacity:1; fill:none" points="
  151.118,657.89 151.118,648.73 
  "/>
<polyline clip-path="url(#clip9800)" style="stroke:#000000; stroke-width:4; stroke-opacity:1; fill:none" points="
  687.625,657.89 687.625,648.73 
  "/>
<polyline clip-path="url(#clip9800)" style="stroke:#000000; stroke-width:4; stroke-opacity:1; fill:none" points="
  1215.62,657.89 1215.62,648.73 
  "/>
<polyline clip-path="url(#clip9800)" style="stroke:#000000; stroke-width:4; stroke-opacity:1; fill:none" points="
  1752.12,657.89 1752.12,648.73 
  "/>
<polyline clip-path="url(#clip9800)" style="stroke:#000000; stroke-width:4; stroke-opacity:1; fill:none" points="
  2288.63,657.89 2288.63,648.73 
  "/>
<polyline clip-path="url(#clip9800)" style="stroke:#000000; stroke-width:4; stroke-opacity:1; fill:none" points="
  86.9921,598.609 120.979,598.609 
  "/>
<polyline clip-path="url(#clip9800)" style="stroke:#000000; stroke-width:4; stroke-opacity:1; fill:none" points="
  86.9921,513.591 120.979,513.591 
  "/>
<polyline clip-path="url(#clip9800)" style="stroke:#000000; stroke-width:4; stroke-opacity:1; fill:none" points="
  86.9921,428.573 120.979,428.573 
  "/>
<polyline clip-path="url(#clip9800)" style="stroke:#000000; stroke-width:4; stroke-opacity:1; fill:none" points="
  86.9921,343.555 120.979,343.555 
  "/>
<polyline clip-path="url(#clip9800)" style="stroke:#000000; stroke-width:4; stroke-opacity:1; fill:none" points="
  86.9921,258.537 120.979,258.537 
  "/>
<polyline clip-path="url(#clip9800)" style="stroke:#000000; stroke-width:4; stroke-opacity:1; fill:none" points="
  86.9921,173.519 120.979,173.519 
  "/>
<polyline clip-path="url(#clip9800)" style="stroke:#000000; stroke-width:4; stroke-opacity:1; fill:none" points="
  86.9921,88.5015 120.979,88.5015 
  "/>
<g clip-path="url(#clip9800)">
<text style="fill:#000000; fill-opacity:1; font-family:Arial,Helvetica Neue,Helvetica,sans-serif; font-size:48px; text-anchor:middle;" transform="rotate(0, 151.118, 711.89)" x="151.118" y="711.89">2018-07-26</text>
</g>
<g clip-path="url(#clip9800)">
<text style="fill:#000000; fill-opacity:1; font-family:Arial,Helvetica Neue,Helvetica,sans-serif; font-size:48px; text-anchor:middle;" transform="rotate(0, 687.625, 711.89)" x="687.625" y="711.89">2018-10-24</text>
</g>
<g clip-path="url(#clip9800)">
<text style="fill:#000000; fill-opacity:1; font-family:Arial,Helvetica Neue,Helvetica,sans-serif; font-size:48px; text-anchor:middle;" transform="rotate(0, 1215.62, 711.89)" x="1215.62" y="711.89">2019-01-24</text>
</g>
<g clip-path="url(#clip9800)">
<text style="fill:#000000; fill-opacity:1; font-family:Arial,Helvetica Neue,Helvetica,sans-serif; font-size:48px; text-anchor:middle;" transform="rotate(0, 1752.12, 711.89)" x="1752.12" y="711.89">2019-04-25</text>
</g>
<g clip-path="url(#clip9800)">
<text style="fill:#000000; fill-opacity:1; font-family:Arial,Helvetica Neue,Helvetica,sans-serif; font-size:48px; text-anchor:middle;" transform="rotate(0, 2288.63, 711.89)" x="2288.63" y="711.89">2019-07-25</text>
</g>
<g clip-path="url(#clip9800)">
<text style="fill:#000000; fill-opacity:1; font-family:Arial,Helvetica Neue,Helvetica,sans-serif; font-size:48px; text-anchor:end;" transform="rotate(0, 62.9921, 616.109)" x="62.9921" y="616.109">45</text>
</g>
<g clip-path="url(#clip9800)">
<text style="fill:#000000; fill-opacity:1; font-family:Arial,Helvetica Neue,Helvetica,sans-serif; font-size:48px; text-anchor:end;" transform="rotate(0, 62.9921, 531.091)" x="62.9921" y="531.091">50</text>
</g>
<g clip-path="url(#clip9800)">
<text style="fill:#000000; fill-opacity:1; font-family:Arial,Helvetica Neue,Helvetica,sans-serif; font-size:48px; text-anchor:end;" transform="rotate(0, 62.9921, 446.073)" x="62.9921" y="446.073">55</text>
</g>
<g clip-path="url(#clip9800)">
<text style="fill:#000000; fill-opacity:1; font-family:Arial,Helvetica Neue,Helvetica,sans-serif; font-size:48px; text-anchor:end;" transform="rotate(0, 62.9921, 361.055)" x="62.9921" y="361.055">60</text>
</g>
<g clip-path="url(#clip9800)">
<text style="fill:#000000; fill-opacity:1; font-family:Arial,Helvetica Neue,Helvetica,sans-serif; font-size:48px; text-anchor:end;" transform="rotate(0, 62.9921, 276.037)" x="62.9921" y="276.037">65</text>
</g>
<g clip-path="url(#clip9800)">
<text style="fill:#000000; fill-opacity:1; font-family:Arial,Helvetica Neue,Helvetica,sans-serif; font-size:48px; text-anchor:end;" transform="rotate(0, 62.9921, 191.019)" x="62.9921" y="191.019">70</text>
</g>
<g clip-path="url(#clip9800)">
<text style="fill:#000000; fill-opacity:1; font-family:Arial,Helvetica Neue,Helvetica,sans-serif; font-size:48px; text-anchor:end;" transform="rotate(0, 62.9921, 106.002)" x="62.9921" y="106.002">75</text>
</g>
<polyline clip-path="url(#clip9802)" style="stroke:#000000; stroke-width:12; stroke-opacity:1; fill:none" points="
  151.118,180.151 159.634,195.794 168.149,171.309 176.665,194.604 185.181,213.308 193.697,191.203 202.213,199.195 210.729,190.353 219.245,187.632 227.761,225.55 
  236.277,227.761 244.793,213.818 253.309,221.129 261.825,223.85 270.341,258.367 278.857,250.716 287.373,243.064 295.889,234.222 304.405,218.579 312.921,209.907 
  321.437,210.417 329.953,195.284 338.469,192.733 346.985,198.515 355.501,181.851 364.017,169.268 372.533,176.92 381.049,175.73 389.565,195.284 398.081,211.437 
  406.597,211.777 415.113,215.348 423.629,186.272 432.145,167.228 440.661,197.494 449.177,190.693 457.693,192.053 466.209,176.07 474.725,154.475 483.241,159.917 
  491.757,160.257 500.273,138.152 508.789,134.751 517.305,146.824 525.821,137.472 534.337,118.258 542.853,83.4005 551.369,84.5907 559.885,64.5265 568.401,99.8939 
  576.917,99.7239 585.433,100.574 593.949,89.1817 602.465,119.618 610.981,157.026 619.497,150.735 628.013,143.253 636.529,140.873 645.045,177.77 653.561,196.474 
  662.077,188.483 670.593,187.632 679.109,234.222 687.625,227.591 696.141,218.919 704.657,214.498 713.173,223.85 721.689,238.473 730.205,253.266 738.721,280.812 
  747.237,290.164 755.753,290.844 764.269,305.977 772.785,315.159 781.301,332.163 789.817,340.324 798.333,344.745 806.849,416.84 815.365,407.318 823.881,403.748 
  832.397,403.748 840.913,398.647 849.429,455.268 857.945,434.864 866.461,506.449 874.976,485.875 883.492,487.065 892.008,508.66 900.524,488.936 909.04,497.777 
  917.556,463.43 926.072,458.329 934.588,464.45 943.104,488.255 951.62,469.211 960.136,496.587 968.652,485.535 977.168,494.037 985.684,469.721 994.2,493.186 
  1002.72,515.631 1011.23,577.524 1019.75,561.201 1028.26,583.645 1036.78,588.576 1045.3,640.607 1053.81,577.864 1062.33,605.24 1070.84,592.997 1079.36,591.637 
  1087.88,572.423 1096.39,563.071 1104.91,548.278 1113.42,538.756 1121.94,517.331 1130.46,473.462 1138.97,469.551 1147.49,486.555 1156,504.919 1164.52,477.713 
  1173.04,474.312 1181.55,478.393 1190.07,448.977 1198.58,469.892 1207.1,469.041 1215.62,460.37 1224.13,450.848 1232.65,479.754 1241.16,457.309 1249.68,441.666 
  1258.2,449.147 1266.71,424.152 1275.23,436.054 1283.74,451.358 1292.26,445.406 1300.78,468.701 1309.29,467.341 1317.81,472.612 1326.32,460.88 1334.84,447.277 
  1343.36,438.605 1351.87,418.541 1360.39,410.039 1368.9,395.926 1377.42,395.246 1385.94,390.145 1394.45,420.411 1402.97,420.071 1411.48,395.586 1420,390.825 
  1428.52,414.97 1437.03,401.537 1445.55,402.047 1454.06,407.829 1462.58,400.347 1471.1,410.379 1479.61,398.136 1488.13,396.776 1496.64,373.141 1505.16,367.19 
  1513.68,368.72 1522.19,359.028 1530.71,360.048 1539.22,346.446 1547.74,343.895 1556.26,359.878 1564.77,363.619 1573.29,344.575 1581.8,353.587 1590.32,355.458 
  1598.84,341.175 1607.35,316.519 1615.87,299.686 1624.38,301.726 1632.9,307.848 1641.42,291.184 1649.93,268.739 1658.45,275.881 1666.96,265.169 1675.48,282.682 
  1684,277.411 1692.51,285.743 1701.03,274.691 1709.54,279.622 1718.06,275.541 1726.58,246.635 1735.09,236.433 1743.61,243.404 1752.12,254.966 1760.64,287.443 
  1769.16,284.043 1777.67,277.071 1786.19,282.342 1794.7,312.779 1803.22,310.568 1811.74,305.297 1820.25,319.75 1828.77,307.507 1837.28,314.649 1845.8,315.329 
  1854.32,325.871 1862.83,313.289 1871.35,309.208 1879.86,294.755 1888.38,296.625 1896.9,290.844 1905.41,292.714 1913.93,319.41 1922.44,379.092 1930.96,366.85 
  1939.48,358.178 1947.99,363.789 1956.51,401.537 1965.02,454.078 1973.54,458.329 1982.05,454.418 1990.57,485.025 1999.09,469.551 2007.6,445.746 2016.12,458.159 
  2024.63,457.989 2033.15,494.207 2041.67,474.823 2050.18,470.912 2058.7,480.774 2067.21,447.277 2075.73,449.657 2084.25,400.517 2092.76,387.254 2101.28,379.263 
  2109.79,380.453 2118.31,354.097 2126.83,353.247 2135.34,369.57 2143.86,359.028 2152.37,407.318 2160.89,388.785 2169.41,385.894 2177.92,383.343 2186.44,380.453 
  2194.95,336.244 2203.47,340.154 2211.99,339.984 2220.5,350.697 2229.02,384.024 2237.53,398.307 2246.05,423.472 2254.57,417.861 2263.08,407.829 2271.6,398.477 
  2280.11,413.61 2288.63,411.229 
  "/>
<polygon clip-path="url(#clip9800)" points="
1909.69,251.724 2280.76,251.724 2280.76,130.764 1909.69,130.764 
  " fill="#ffffff" fill-rule="evenodd" fill-opacity="1"/>
<polyline clip-path="url(#clip9800)" style="stroke:#000000; stroke-width:4; stroke-opacity:1; fill:none" points="
  1909.69,251.724 2280.76,251.724 2280.76,130.764 1909.69,130.764 1909.69,251.724 
  "/>
<polyline clip-path="url(#clip9800)" style="stroke:#000000; stroke-width:12; stroke-opacity:1; fill:none" points="
  1933.69,191.244 2077.69,191.244 
  "/>
<g clip-path="url(#clip9800)">
<text style="fill:#000000; fill-opacity:1; font-family:Arial,Helvetica Neue,Helvetica,sans-serif; font-size:48px; text-anchor:start;" transform="rotate(0, 2101.69, 208.744)" x="2101.69" y="208.744">Crude</text>
</g>
<polygon clip-path="url(#clip9800)" points="
86.9921,1089.45 2352.76,1089.45 2352.76,784.126 86.9921,784.126 
  " fill="#ffffff" fill-rule="evenodd" fill-opacity="1"/>
<defs>
  <clipPath id="clip9803">
    <rect x="86" y="784" width="2267" height="306"/>
  </clipPath>
</defs>
<polyline clip-path="url(#clip9803)" style="stroke:#000000; stroke-width:2; stroke-opacity:0.1; fill:none" points="
  151.118,1089.45 151.118,784.126 
  "/>
<polyline clip-path="url(#clip9803)" style="stroke:#000000; stroke-width:2; stroke-opacity:0.1; fill:none" points="
  687.625,1089.45 687.625,784.126 
  "/>
<polyline clip-path="url(#clip9803)" style="stroke:#000000; stroke-width:2; stroke-opacity:0.1; fill:none" points="
  1215.62,1089.45 1215.62,784.126 
  "/>
<polyline clip-path="url(#clip9803)" style="stroke:#000000; stroke-width:2; stroke-opacity:0.1; fill:none" points="
  1752.12,1089.45 1752.12,784.126 
  "/>
<polyline clip-path="url(#clip9803)" style="stroke:#000000; stroke-width:2; stroke-opacity:0.1; fill:none" points="
  2288.63,1089.45 2288.63,784.126 
  "/>
<polyline clip-path="url(#clip9803)" style="stroke:#000000; stroke-width:2; stroke-opacity:0.1; fill:none" points="
  86.9921,1083.08 2352.76,1083.08 
  "/>
<polyline clip-path="url(#clip9803)" style="stroke:#000000; stroke-width:2; stroke-opacity:0.1; fill:none" points="
  86.9921,1001.32 2352.76,1001.32 
  "/>
<polyline clip-path="url(#clip9803)" style="stroke:#000000; stroke-width:2; stroke-opacity:0.1; fill:none" points="
  86.9921,919.561 2352.76,919.561 
  "/>
<polyline clip-path="url(#clip9803)" style="stroke:#000000; stroke-width:2; stroke-opacity:0.1; fill:none" points="
  86.9921,837.8 2352.76,837.8 
  "/>
<polyline clip-path="url(#clip9800)" style="stroke:#000000; stroke-width:4; stroke-opacity:1; fill:none" points="
  86.9921,1089.45 2352.76,1089.45 
  "/>
<polyline clip-path="url(#clip9800)" style="stroke:#000000; stroke-width:4; stroke-opacity:1; fill:none" points="
  86.9921,1089.45 86.9921,784.126 
  "/>
<polyline clip-path="url(#clip9800)" style="stroke:#000000; stroke-width:4; stroke-opacity:1; fill:none" points="
  151.118,1089.45 151.118,1084.87 
  "/>
<polyline clip-path="url(#clip9800)" style="stroke:#000000; stroke-width:4; stroke-opacity:1; fill:none" points="
  687.625,1089.45 687.625,1084.87 
  "/>
<polyline clip-path="url(#clip9800)" style="stroke:#000000; stroke-width:4; stroke-opacity:1; fill:none" points="
  1215.62,1089.45 1215.62,1084.87 
  "/>
<polyline clip-path="url(#clip9800)" style="stroke:#000000; stroke-width:4; stroke-opacity:1; fill:none" points="
  1752.12,1089.45 1752.12,1084.87 
  "/>
<polyline clip-path="url(#clip9800)" style="stroke:#000000; stroke-width:4; stroke-opacity:1; fill:none" points="
  2288.63,1089.45 2288.63,1084.87 
  "/>
<polyline clip-path="url(#clip9800)" style="stroke:#000000; stroke-width:4; stroke-opacity:1; fill:none" points="
  86.9921,1083.08 120.979,1083.08 
  "/>
<polyline clip-path="url(#clip9800)" style="stroke:#000000; stroke-width:4; stroke-opacity:1; fill:none" points="
  86.9921,1001.32 120.979,1001.32 
  "/>
<polyline clip-path="url(#clip9800)" style="stroke:#000000; stroke-width:4; stroke-opacity:1; fill:none" points="
  86.9921,919.561 120.979,919.561 
  "/>
<polyline clip-path="url(#clip9800)" style="stroke:#000000; stroke-width:4; stroke-opacity:1; fill:none" points="
  86.9921,837.8 120.979,837.8 
  "/>
<g clip-path="url(#clip9800)">
<text style="fill:#000000; fill-opacity:1; font-family:Arial,Helvetica Neue,Helvetica,sans-serif; font-size:48px; text-anchor:middle;" transform="rotate(0, 151.118, 1143.45)" x="151.118" y="1143.45">2018-07-26</text>
</g>
<g clip-path="url(#clip9800)">
<text style="fill:#000000; fill-opacity:1; font-family:Arial,Helvetica Neue,Helvetica,sans-serif; font-size:48px; text-anchor:middle;" transform="rotate(0, 687.625, 1143.45)" x="687.625" y="1143.45">2018-10-24</text>
</g>
<g clip-path="url(#clip9800)">
<text style="fill:#000000; fill-opacity:1; font-family:Arial,Helvetica Neue,Helvetica,sans-serif; font-size:48px; text-anchor:middle;" transform="rotate(0, 1215.62, 1143.45)" x="1215.62" y="1143.45">2019-01-24</text>
</g>
<g clip-path="url(#clip9800)">
<text style="fill:#000000; fill-opacity:1; font-family:Arial,Helvetica Neue,Helvetica,sans-serif; font-size:48px; text-anchor:middle;" transform="rotate(0, 1752.12, 1143.45)" x="1752.12" y="1143.45">2019-04-25</text>
</g>
<g clip-path="url(#clip9800)">
<text style="fill:#000000; fill-opacity:1; font-family:Arial,Helvetica Neue,Helvetica,sans-serif; font-size:48px; text-anchor:middle;" transform="rotate(0, 2288.63, 1143.45)" x="2288.63" y="1143.45">2019-07-25</text>
</g>
<g clip-path="url(#clip9800)">
<text style="fill:#000000; fill-opacity:1; font-family:Arial,Helvetica Neue,Helvetica,sans-serif; font-size:48px; text-anchor:end;" transform="rotate(0, 62.9921, 1100.58)" x="62.9921" y="1100.58">20</text>
</g>
<g clip-path="url(#clip9800)">
<text style="fill:#000000; fill-opacity:1; font-family:Arial,Helvetica Neue,Helvetica,sans-serif; font-size:48px; text-anchor:end;" transform="rotate(0, 62.9921, 1018.82)" x="62.9921" y="1018.82">40</text>
</g>
<g clip-path="url(#clip9800)">
<text style="fill:#000000; fill-opacity:1; font-family:Arial,Helvetica Neue,Helvetica,sans-serif; font-size:48px; text-anchor:end;" transform="rotate(0, 62.9921, 937.061)" x="62.9921" y="937.061">60</text>
</g>
<g clip-path="url(#clip9800)">
<text style="fill:#000000; fill-opacity:1; font-family:Arial,Helvetica Neue,Helvetica,sans-serif; font-size:48px; text-anchor:end;" transform="rotate(0, 62.9921, 855.3)" x="62.9921" y="855.3">80</text>
</g>
<polyline clip-path="url(#clip9803)" style="stroke:#ff0000; stroke-width:8; stroke-opacity:1; fill:none" points="
  653.561,1068.81 662.077,1068.61 670.593,1068.76 679.109,1068.1 687.625,1067.94 696.141,1067.94 704.657,1067.65 713.173,1067.48 721.689,1067.23 730.205,1067.12 
  738.721,1068.21 747.237,1069.48 755.753,1070.46 764.269,1071.8 772.785,1073.18 781.301,1074.58 789.817,1075.82 798.333,1076.79 806.849,1078.24 815.365,1077.34 
  823.881,1075.5 832.397,1073.47 840.913,1071.31 849.429,1070.03 857.945,1068.45 866.461,1068.17 874.976,1067.16 883.492,1065.61 892.008,1064.37 900.524,1062.86 
  909.04,1061.38 917.556,1059.9 926.072,1058.5 934.588,1057.38 943.104,1056.57 951.62,1055.71 960.136,1055.12 968.652,1054.62 977.168,1054.27 985.684,1054.02 
  994.2,1053.71 1002.72,1053.55 1011.23,1053.83 1019.75,1053.97 1028.26,1054.19 1036.78,1054.56 1045.3,1055.25 1053.81,1055.21 1062.33,1055.24 1070.84,1055.19 
  1079.36,1055.48 1087.88,1055.84 1096.39,1056.29 1104.91,1056.74 1113.42,1057.51 1121.94,1058.17 1130.46,1058.73 1138.97,1059.37 1147.49,1059.93 1156,1060.81 
  1164.52,1062.11 1173.04,1063.53 1181.55,1065 1190.07,1066.99 1198.58,1068.88 1207.1,1070.9 1215.62,1073.12 1224.13,1074.64 1232.65,1076.77 1241.16,1078.21 
  1249.68,1079.36 1258.2,1080.46 1266.71,1080.53 1275.23,1080.81 1283.74,1080.35 1292.26,1078.84 1300.78,1076.85 1309.29,1074.46 1317.81,1074.26 1326.32,1073.73 
  1334.84,1073.03 1343.36,1072.28 1351.87,1071.68 1360.39,1072.39 1368.9,1073.28 1377.42,1073.43 1385.94,1074.03 1394.45,1073.86 1402.97,1073.12 1411.48,1072.84 
  1420,1072.17 1428.52,1071.76 1437.03,1071.48 1445.55,1071.05 1454.06,1069.98 1462.58,1069.4 1471.1,1069.21 1479.61,1068.64 1488.13,1068.22 1496.64,1067.76 
  1505.16,1068.08 1513.68,1069.08 1522.19,1071.1 1530.71,1072.22 1539.22,1073.34 1547.74,1074.45 1556.26,1071.94 1564.77,1070.69 1573.29,1068.54 1581.8,1066.43 
  1590.32,1063.99 1598.84,1062.27 1607.35,1061.38 1615.87,1061.69 1624.38,1062.07 1632.9,1062.84 1641.42,1064.55 1649.93,1066.83 1658.45,1067.72 1666.96,1066.31 
  1675.48,1064.91 1684,1063.65 1692.51,1062.41 1701.03,1061.67 1709.54,1060.92 1718.06,1060.36 1726.58,1060.46 1735.09,1060.83 1743.61,1060.74 1752.12,1060.45 
  1760.64,1060.21 1769.16,1060.11 1777.67,1059.86 1786.19,1059.78 1794.7,1059.73 1803.22,1059.34 1811.74,1058.3 1820.25,1057.62 1828.77,1056.5 1837.28,1055.75 
  1845.8,1055.37 1854.32,1055.57 1862.83,1055.94 1871.35,1056.44 1879.86,1056.93 1888.38,1057.59 1896.9,1058.34 1905.41,1059.03 1913.93,1060.37 1922.44,1060.43 
  1930.96,1060.66 1939.48,1060.79 1947.99,1060.92 1956.51,1060.92 1965.02,1062.55 1973.54,1064.11 1982.05,1065.15 1990.57,1067.15 1999.09,1068.03 2007.6,1067.81 
  2016.12,1067.51 2024.63,1067.09 2033.15,1066.91 2041.67,1066.12 2050.18,1064.74 2058.7,1063.28 2067.21,1062.05 2075.73,1060.86 2084.25,1059.45 2092.76,1058.58 
  2101.28,1057.94 2109.79,1056.98 2118.31,1057.15 2126.83,1057.59 2135.34,1057.67 2143.86,1058.04 2152.37,1057.77 2160.89,1057.97 2169.41,1058.35 2177.92,1058.92 
  2186.44,1059.64 2194.95,1060.42 2203.47,1061.23 2211.99,1062.07 2220.5,1063.16 2229.02,1065.34 2237.53,1067.95 2246.05,1071.11 2254.57,1072.64 2263.08,1073.97 
  2271.6,1075.61 2280.11,1077.29 2288.63,1079.24 
  "/>
<polyline clip-path="url(#clip9803)" style="stroke:#8b0000; stroke-width:8; stroke-opacity:1; fill:none" stroke-dasharray="32, 20" points="
  653.561,1068.81 662.077,1067.69 670.593,1066.58 679.109,1065.36 687.625,1064.04 696.141,1062.63 704.657,1061.25 713.173,1059.9 721.689,1058.73 730.205,1057.89 
  738.721,1057.97 747.237,1058.27 755.753,1058.39 764.269,1058.53 772.785,1058.55 781.301,1058.86 789.817,1058.19 798.333,1056.99 806.849,1057.6 815.365,1057.08 
  823.881,1056.08 832.397,1054.86 840.913,1053.38 849.429,1052.92 857.945,1050.45 866.461,1047.47 874.976,1044.09 883.492,1040.73 892.008,1037.04 900.524,1033.19 
  909.04,1029.48 917.556,1025.71 926.072,1022.04 934.588,1018.41 943.104,1014.9 951.62,1011.41 960.136,1008.08 968.652,1004.77 977.168,1001.55 985.684,998.291 
  994.2,995.112 1002.72,992.076 1011.23,989.559 1019.75,986.87 1028.26,984.38 1036.78,981.92 1045.3,979.997 1053.81,977.406 1062.33,975.021 1070.84,972.468 
  1079.36,969.918 1087.88,967.283 1096.39,964.567 1104.91,961.789 1113.42,959.033 1121.94,956.303 1130.46,953.689 1138.97,951.119 1147.49,948.527 1156,945.936 
  1164.52,943.427 1173.04,940.922 1181.55,938.428 1190.07,936.077 1198.58,933.66 1207.1,931.269 1215.62,928.934 1224.13,926.661 1232.65,924.286 1241.16,921.997 
  1249.68,919.804 1258.2,917.591 1266.71,915.538 1275.23,913.427 1283.74,911.254 1292.26,909.127 1300.78,906.925 1309.29,904.744 1317.81,902.567 1326.32,900.442 
  1334.84,898.388 1343.36,896.39 1351.87,894.523 1360.39,892.727 1368.9,891.051 1377.42,889.39 1385.94,887.782 1394.45,885.955 1402.97,884.142 1411.48,882.506 
  1420,880.917 1428.52,879.151 1437.03,877.491 1445.55,875.835 1454.06,874.146 1462.58,872.521 1471.1,870.831 1479.61,869.239 1488.13,867.666 1496.64,866.31 
  1505.16,865.019 1513.68,863.718 1522.19,862.524 1530.71,861.324 1539.22,860.282 1547.74,859.275 1556.26,858.089 1564.77,856.868 1573.29,855.864 1581.8,854.759 
  1590.32,853.637 1598.84,852.684 1607.35,851.451 1615.87,850.001 1624.38,848.581 1632.9,847.246 1641.42,845.711 1649.93,843.947 1658.45,842.26 1666.96,840.478 
  1675.48,838.878 1684,837.229 1692.51,835.675 1701.03,834.014 1709.54,832.409 1718.06,830.77 1726.58,828.896 1735.09,826.964 1743.61,825.086 1752.12,823.301 
  1760.64,821.817 1769.16,820.301 1777.67,818.721 1786.19,817.199 1794.7,816.041 1803.22,814.858 1811.74,813.611 1820.25,812.558 1828.77,811.346 1837.28,810.231 
  1845.8,809.128 1854.32,808.172 1862.83,807.049 1871.35,805.877 1879.86,804.538 1888.38,803.225 1896.9,801.853 1905.41,800.505 1913.93,799.485 1922.44,799.443 
  1930.96,799.17 1939.48,798.745 1947.99,798.416 1956.51,798.822 1965.02,800.475 1973.54,802.219 1982.05,803.832 1990.57,806.24 1999.09,808.187 2007.6,809.503 
  2016.12,811.11 2024.63,812.692 2033.15,815.212 2041.67,817.173 2050.18,819.008 2058.7,821.071 2067.21,820.572 2075.73,819.21 2084.25,817.983 2092.76,816.832 
  2101.28,815.735 2109.79,814.633 2118.31,813.738 2126.83,812.853 2135.34,811.836 2143.86,810.905 2152.37,809.678 2160.89,808.538 2169.41,807.419 2177.92,806.318 
  2186.44,805.238 2194.95,804.387 2203.47,803.621 2211.99,802.854 2220.5,802.23 2229.02,801.141 2237.53,799.979 2246.05,798.732 2254.57,797.503 2263.08,796.312 
  2271.6,795.164 2280.11,793.96 2288.63,792.767 
  "/>
<polygon clip-path="url(#clip9800)" points="
1679.66,1049.09 2280.76,1049.09 2280.76,867.646 1679.66,867.646 
  " fill="#ffffff" fill-rule="evenodd" fill-opacity="1"/>
<polyline clip-path="url(#clip9800)" style="stroke:#000000; stroke-width:4; stroke-opacity:1; fill:none" points="
  1679.66,1049.09 2280.76,1049.09 2280.76,867.646 1679.66,867.646 1679.66,1049.09 
  "/>
<polyline clip-path="url(#clip9800)" style="stroke:#ff0000; stroke-width:8; stroke-opacity:1; fill:none" points="
  1703.66,928.126 1847.66,928.126 
  "/>
<g clip-path="url(#clip9800)">
<text style="fill:#000000; fill-opacity:1; font-family:Arial,Helvetica Neue,Helvetica,sans-serif; font-size:48px; text-anchor:start;" transform="rotate(0, 1871.66, 945.626)" x="1871.66" y="945.626">Rolling  R/ S</text>
</g>
<polyline clip-path="url(#clip9800)" style="stroke:#8b0000; stroke-width:8; stroke-opacity:1; fill:none" stroke-dasharray="32, 20" points="
  1703.66,988.606 1847.66,988.606 
  "/>
<g clip-path="url(#clip9800)">
<text style="fill:#000000; fill-opacity:1; font-family:Arial,Helvetica Neue,Helvetica,sans-serif; font-size:48px; text-anchor:start;" transform="rotate(0, 1871.66, 1006.11)" x="1871.66" y="1006.11">Cumulative  R/ S</text>
</g>
<polygon clip-path="url(#clip9800)" points="
86.9921,1521.01 2352.76,1521.01 2352.76,1215.69 86.9921,1215.69 
  " fill="#ffffff" fill-rule="evenodd" fill-opacity="1"/>
<defs>
  <clipPath id="clip9804">
    <rect x="86" y="1215" width="2267" height="306"/>
  </clipPath>
</defs>
<polyline clip-path="url(#clip9804)" style="stroke:#000000; stroke-width:2; stroke-opacity:0.1; fill:none" points="
  151.118,1521.01 151.118,1215.69 
  "/>
<polyline clip-path="url(#clip9804)" style="stroke:#000000; stroke-width:2; stroke-opacity:0.1; fill:none" points="
  687.625,1521.01 687.625,1215.69 
  "/>
<polyline clip-path="url(#clip9804)" style="stroke:#000000; stroke-width:2; stroke-opacity:0.1; fill:none" points="
  1215.62,1521.01 1215.62,1215.69 
  "/>
<polyline clip-path="url(#clip9804)" style="stroke:#000000; stroke-width:2; stroke-opacity:0.1; fill:none" points="
  1752.12,1521.01 1752.12,1215.69 
  "/>
<polyline clip-path="url(#clip9804)" style="stroke:#000000; stroke-width:2; stroke-opacity:0.1; fill:none" points="
  2288.63,1521.01 2288.63,1215.69 
  "/>
<polyline clip-path="url(#clip9804)" style="stroke:#000000; stroke-width:2; stroke-opacity:0.1; fill:none" points="
  86.9921,1461.23 2352.76,1461.23 
  "/>
<polyline clip-path="url(#clip9804)" style="stroke:#000000; stroke-width:2; stroke-opacity:0.1; fill:none" points="
  86.9921,1397.61 2352.76,1397.61 
  "/>
<polyline clip-path="url(#clip9804)" style="stroke:#000000; stroke-width:2; stroke-opacity:0.1; fill:none" points="
  86.9921,1333.98 2352.76,1333.98 
  "/>
<polyline clip-path="url(#clip9804)" style="stroke:#000000; stroke-width:2; stroke-opacity:0.1; fill:none" points="
  86.9921,1270.36 2352.76,1270.36 
  "/>
<polyline clip-path="url(#clip9800)" style="stroke:#000000; stroke-width:4; stroke-opacity:1; fill:none" points="
  86.9921,1521.01 2352.76,1521.01 
  "/>
<polyline clip-path="url(#clip9800)" style="stroke:#000000; stroke-width:4; stroke-opacity:1; fill:none" points="
  86.9921,1521.01 86.9921,1215.69 
  "/>
<polyline clip-path="url(#clip9800)" style="stroke:#000000; stroke-width:4; stroke-opacity:1; fill:none" points="
  151.118,1521.01 151.118,1516.43 
  "/>
<polyline clip-path="url(#clip9800)" style="stroke:#000000; stroke-width:4; stroke-opacity:1; fill:none" points="
  687.625,1521.01 687.625,1516.43 
  "/>
<polyline clip-path="url(#clip9800)" style="stroke:#000000; stroke-width:4; stroke-opacity:1; fill:none" points="
  1215.62,1521.01 1215.62,1516.43 
  "/>
<polyline clip-path="url(#clip9800)" style="stroke:#000000; stroke-width:4; stroke-opacity:1; fill:none" points="
  1752.12,1521.01 1752.12,1516.43 
  "/>
<polyline clip-path="url(#clip9800)" style="stroke:#000000; stroke-width:4; stroke-opacity:1; fill:none" points="
  2288.63,1521.01 2288.63,1516.43 
  "/>
<polyline clip-path="url(#clip9800)" style="stroke:#000000; stroke-width:4; stroke-opacity:1; fill:none" points="
  86.9921,1461.23 120.979,1461.23 
  "/>
<polyline clip-path="url(#clip9800)" style="stroke:#000000; stroke-width:4; stroke-opacity:1; fill:none" points="
  86.9921,1397.61 120.979,1397.61 
  "/>
<polyline clip-path="url(#clip9800)" style="stroke:#000000; stroke-width:4; stroke-opacity:1; fill:none" points="
  86.9921,1333.98 120.979,1333.98 
  "/>
<polyline clip-path="url(#clip9800)" style="stroke:#000000; stroke-width:4; stroke-opacity:1; fill:none" points="
  86.9921,1270.36 120.979,1270.36 
  "/>
<g clip-path="url(#clip9800)">
<text style="fill:#000000; fill-opacity:1; font-family:Arial,Helvetica Neue,Helvetica,sans-serif; font-size:48px; text-anchor:middle;" transform="rotate(0, 151.118, 1575.01)" x="151.118" y="1575.01">2018-07-26</text>
</g>
<g clip-path="url(#clip9800)">
<text style="fill:#000000; fill-opacity:1; font-family:Arial,Helvetica Neue,Helvetica,sans-serif; font-size:48px; text-anchor:middle;" transform="rotate(0, 687.625, 1575.01)" x="687.625" y="1575.01">2018-10-24</text>
</g>
<g clip-path="url(#clip9800)">
<text style="fill:#000000; fill-opacity:1; font-family:Arial,Helvetica Neue,Helvetica,sans-serif; font-size:48px; text-anchor:middle;" transform="rotate(0, 1215.62, 1575.01)" x="1215.62" y="1575.01">2019-01-24</text>
</g>
<g clip-path="url(#clip9800)">
<text style="fill:#000000; fill-opacity:1; font-family:Arial,Helvetica Neue,Helvetica,sans-serif; font-size:48px; text-anchor:middle;" transform="rotate(0, 1752.12, 1575.01)" x="1752.12" y="1575.01">2019-04-25</text>
</g>
<g clip-path="url(#clip9800)">
<text style="fill:#000000; fill-opacity:1; font-family:Arial,Helvetica Neue,Helvetica,sans-serif; font-size:48px; text-anchor:middle;" transform="rotate(0, 2288.63, 1575.01)" x="2288.63" y="1575.01">2019-07-25</text>
</g>
<g clip-path="url(#clip9800)">
<text style="fill:#000000; fill-opacity:1; font-family:Arial,Helvetica Neue,Helvetica,sans-serif; font-size:48px; text-anchor:end;" transform="rotate(0, 62.9921, 1478.73)" x="62.9921" y="1478.73">0.62</text>
</g>
<g clip-path="url(#clip9800)">
<text style="fill:#000000; fill-opacity:1; font-family:Arial,Helvetica Neue,Helvetica,sans-serif; font-size:48px; text-anchor:end;" transform="rotate(0, 62.9921, 1415.11)" x="62.9921" y="1415.11">0.64</text>
</g>
<g clip-path="url(#clip9800)">
<text style="fill:#000000; fill-opacity:1; font-family:Arial,Helvetica Neue,Helvetica,sans-serif; font-size:48px; text-anchor:end;" transform="rotate(0, 62.9921, 1351.48)" x="62.9921" y="1351.48">0.66</text>
</g>
<g clip-path="url(#clip9800)">
<text style="fill:#000000; fill-opacity:1; font-family:Arial,Helvetica Neue,Helvetica,sans-serif; font-size:48px; text-anchor:end;" transform="rotate(0, 62.9921, 1287.86)" x="62.9921" y="1287.86">0.68</text>
</g>
<polyline clip-path="url(#clip9804)" style="stroke:#00ffff; stroke-width:8; stroke-opacity:1; fill:none" points="
  653.561,1335.03 662.077,1357.1 670.593,1322.16 679.109,1323.55 687.625,1329.03 696.141,1320.22 704.657,1311 713.173,1321.14 721.689,1359.72 730.205,1370.86 
  738.721,1320.5 747.237,1306.32 755.753,1298.27 764.269,1284.64 772.785,1302.24 781.301,1325.32 789.817,1347.44 798.333,1310.94 806.849,1331.3 815.365,1339.5 
  823.881,1315.43 832.397,1291.73 840.913,1300.16 849.429,1317.35 857.945,1356.39 866.461,1299.46 874.976,1288.28 883.492,1279.22 892.008,1248.58 900.524,1262.78 
  909.04,1288.61 917.556,1341.06 926.072,1279.42 934.588,1287.04 943.104,1268.95 951.62,1264 960.136,1270.67 968.652,1289.91 977.168,1326.59 985.684,1349.76 
  994.2,1311.59 1002.72,1310.2 1011.23,1295.31 1019.75,1252.43 1028.26,1253.15 1036.78,1284.41 1045.3,1336.8 1053.81,1287.27 1062.33,1335.25 1070.84,1321.89 
  1079.36,1301.34 1087.88,1283.89 1096.39,1302.74 1104.91,1337.84 1113.42,1349.87 1121.94,1321.06 1130.46,1352.4 1138.97,1336.17 1147.49,1272.42 1156,1255.31 
  1164.52,1270.02 1173.04,1308 1181.55,1288.74 1190.07,1316.07 1198.58,1323.66 1207.1,1316.47 1215.62,1319.05 1224.13,1347.3 1232.65,1392.44 1241.16,1445.72 
  1249.68,1390.06 1258.2,1420.18 1266.71,1398.56 1275.23,1362.85 1283.74,1343.27 1292.26,1364.62 1300.78,1391.35 1309.29,1404.69 1317.81,1384.79 1326.32,1386.24 
  1334.84,1379.73 1343.36,1390.62 1351.87,1423.98 1360.39,1437.35 1368.9,1482.06 1377.42,1429.75 1385.94,1430.26 1394.45,1400.9 1402.97,1361.54 1411.48,1336.91 
  1420,1339.23 1428.52,1330.46 1437.03,1378.8 1445.55,1370.86 1454.06,1383.48 1462.58,1395.34 1471.1,1392.04 1479.61,1436.92 1488.13,1409.47 1496.64,1450.29 
  1505.16,1383.44 1513.68,1374.29 1522.19,1357.57 1530.71,1331 1539.22,1371.02 1547.74,1402.83 1556.26,1364.91 1564.77,1410.13 1573.29,1383.22 1581.8,1387.23 
  1590.32,1411.56 1598.84,1408.94 1607.35,1473.81 1615.87,1453.04 1624.38,1469.92 1632.9,1384.64 1641.42,1377.05 1649.93,1368.43 1658.45,1342.42 1666.96,1353.83 
  1675.48,1359.02 1684,1330.11 1692.51,1349.82 1701.03,1344.95 1709.54,1352.09 1718.06,1403.46 1726.58,1383.22 1735.09,1437.86 1743.61,1384.91 1752.12,1354.35 
  1760.64,1306.03 1769.16,1294.21 1777.67,1303.57 1786.19,1286.11 1794.7,1334.43 1803.22,1344.66 1811.74,1314.49 1820.25,1309.94 1828.77,1323.71 1837.28,1339.26 
  1845.8,1406.5 1854.32,1376.77 1862.83,1427.07 1871.35,1401.08 1879.86,1351.07 1888.38,1297.93 1896.9,1300.54 1905.41,1327.3 1913.93,1327.71 1922.44,1415.55 
  1930.96,1390.44 1939.48,1328.95 1947.99,1291.27 1956.51,1306.5 1965.02,1332.28 1973.54,1355.49 1982.05,1320.27 1990.57,1372.06 1999.09,1335.58 2007.6,1290.81 
  2016.12,1272.82 2024.63,1280.58 2033.15,1339.02 2041.67,1327.26 2050.18,1364.35 2058.7,1347.05 2067.21,1321.37 2075.73,1296.94 2084.25,1300.13 2092.76,1316.41 
  2101.28,1329.9 2109.79,1277.91 2118.31,1313.13 2126.83,1291.61 2135.34,1277.17 2143.86,1258.11 2152.37,1261.37 2160.89,1311.97 2169.41,1303.58 2177.92,1366.14 
  2186.44,1377.8 2194.95,1393.06 2203.47,1351.54 2211.99,1330.44 2220.5,1333.83 2229.02,1324.14 2237.53,1296.3 2246.05,1332.67 2254.57,1319.91 2263.08,1304.42 
  2271.6,1291.31 2280.11,1298.02 2288.63,1348.77 
  "/>
<polyline clip-path="url(#clip9804)" style="stroke:#008b8b; stroke-width:8; stroke-opacity:1; fill:none" stroke-dasharray="32, 20" points="
  653.561,1335.03 662.077,1318.87 670.593,1334.76 679.109,1355.82 687.625,1321.05 696.141,1332.75 704.657,1355.5 713.173,1367.9 721.689,1403.62 730.205,1423.26 
  738.721,1456.95 747.237,1463.25 755.753,1508.11 764.269,1512.37 772.785,1498.66 781.301,1484.96 789.817,1475.64 798.333,1463.45 806.849,1478.15 815.365,1456.67 
  823.881,1483.15 832.397,1474.81 840.913,1466.25 849.429,1449.9 857.945,1443.82 866.461,1443.93 874.976,1414.29 883.492,1414.54 892.008,1370.39 900.524,1371.18 
  909.04,1373.39 917.556,1357.88 926.072,1368.27 934.588,1359.75 943.104,1348.94 951.62,1366.62 960.136,1355.1 968.652,1351.2 977.168,1340.94 985.684,1336.52 
  994.2,1327.67 1002.72,1321.18 1011.23,1343.64 1019.75,1334.39 1028.26,1323.1 1036.78,1318.02 1045.3,1314.77 1053.81,1313.79 1062.33,1295.3 1070.84,1289.46 
  1079.36,1282.97 1087.88,1289.77 1096.39,1276.86 1104.91,1267.68 1113.42,1269.81 1121.94,1274.19 1130.46,1266.61 1138.97,1259.07 1147.49,1243.59 1156,1232.22 
  1164.52,1249.7 1173.04,1245.59 1181.55,1267.93 1190.07,1258.78 1198.58,1255.52 1207.1,1256.49 1215.62,1268.3 1224.13,1266.62 1232.65,1255.1 1241.16,1281.93 
  1249.68,1302.01 1258.2,1306.83 1266.71,1313.44 1275.23,1323.06 1283.74,1350.86 1292.26,1361.91 1300.78,1367.05 1309.29,1373.07 1317.81,1376.3 1326.32,1393.68 
  1334.84,1397.5 1343.36,1417.29 1351.87,1425.23 1360.39,1427.59 1368.9,1443.75 1377.42,1436.68 1385.94,1439.02 1394.45,1439.61 1402.97,1451.45 1411.48,1457.92 
  1420,1436.87 1428.52,1421.31 1437.03,1429.9 1445.55,1425.02 1454.06,1415.43 1462.58,1408.95 1471.1,1410.02 1479.61,1409.75 1488.13,1396.29 1496.64,1413.52 
  1505.16,1456.25 1513.68,1445.8 1522.19,1441.52 1530.71,1436.51 1539.22,1422.21 1547.74,1417.57 1556.26,1402.91 1564.77,1390.01 1573.29,1390.04 1581.8,1383.99 
  1590.32,1389.26 1598.84,1383.94 1607.35,1366.21 1615.87,1366.54 1624.38,1367.89 1632.9,1364.91 1641.42,1344.2 1649.93,1342.94 1658.45,1338.21 1666.96,1341.68 
  1675.48,1350.83 1684,1346.57 1692.51,1356.03 1701.03,1349.51 1709.54,1344.71 1718.06,1338.01 1726.58,1340.31 1735.09,1339.33 1743.61,1319.1 1752.12,1321.29 
  1760.64,1331.38 1769.16,1327.43 1777.67,1324.34 1786.19,1322.91 1794.7,1326.35 1803.22,1319.62 1811.74,1316.04 1820.25,1318.37 1828.77,1302.37 1837.28,1311.61 
  1845.8,1298.24 1854.32,1296.94 1862.83,1291.95 1871.35,1298.74 1879.86,1315.07 1888.38,1315.11 1896.9,1302.55 1905.41,1310.01 1913.93,1309.21 1922.44,1321.04 
  1930.96,1314.54 1939.48,1305.58 1947.99,1294.32 1956.51,1298.07 1965.02,1295.38 1973.54,1284.41 1982.05,1272.64 1990.57,1268.74 1999.09,1271.09 2007.6,1280.86 
  2016.12,1272.57 2024.63,1272.54 2033.15,1270.99 2041.67,1273.73 2050.18,1271.51 2058.7,1270.42 2067.21,1268.76 2075.73,1274.24 2084.25,1284.11 2092.76,1282.83 
  2101.28,1284.77 2109.79,1281.52 2118.31,1265.6 2126.83,1263.66 2135.34,1241.6 2143.86,1238.53 2152.37,1234.7 2160.89,1241.93 2169.41,1224.33 2177.92,1242.17 
  2186.44,1253.98 2194.95,1255.32 2203.47,1247.86 2211.99,1235.6 2220.5,1249.13 2229.02,1250.48 2237.53,1239.71 2246.05,1240.21 2254.57,1246.25 2263.08,1245.32 
  2271.6,1243.85 2280.11,1241.02 2288.63,1256.98 
  "/>
<polygon clip-path="url(#clip9800)" points="
1658.29,1480.65 2280.76,1480.65 2280.76,1299.21 1658.29,1299.21 
  " fill="#ffffff" fill-rule="evenodd" fill-opacity="1"/>
<polyline clip-path="url(#clip9800)" style="stroke:#000000; stroke-width:4; stroke-opacity:1; fill:none" points="
  1658.29,1480.65 2280.76,1480.65 2280.76,1299.21 1658.29,1299.21 1658.29,1480.65 
  "/>
<polyline clip-path="url(#clip9800)" style="stroke:#00ffff; stroke-width:8; stroke-opacity:1; fill:none" points="
  1682.29,1359.69 1826.29,1359.69 
  "/>
<g clip-path="url(#clip9800)">
<text style="fill:#000000; fill-opacity:1; font-family:Arial,Helvetica Neue,Helvetica,sans-serif; font-size:48px; text-anchor:start;" transform="rotate(0, 1850.29, 1377.19)" x="1850.29" y="1377.19">Rolling  Hurst</text>
</g>
<polyline clip-path="url(#clip9800)" style="stroke:#008b8b; stroke-width:8; stroke-opacity:1; fill:none" stroke-dasharray="32, 20" points="
  1682.29,1420.17 1826.29,1420.17 
  "/>
<g clip-path="url(#clip9800)">
<text style="fill:#000000; fill-opacity:1; font-family:Arial,Helvetica Neue,Helvetica,sans-serif; font-size:48px; text-anchor:start;" transform="rotate(0, 1850.29, 1437.67)" x="1850.29" y="1437.67">Cumulative  Hurst</text>
</g>
</svg>
