<?xml version="1.0" encoding="utf-8"?>
<svg xmlns="http://www.w3.org/2000/svg" xmlns:xlink="http://www.w3.org/1999/xlink" width="600" height="400" viewBox="0 0 2400 1600">
<defs>
  <clipPath id="clip2800">
    <rect x="0" y="0" width="2400" height="1600"/>
  </clipPath>
</defs>
<polygon clip-path="url(#clip2800)" points="
0,1600 2400,1600 2400,0 0,0 
  " fill="#ffffff" fill-rule="evenodd" fill-opacity="1"/>
<defs>
  <clipPath id="clip2801">
    <rect x="480" y="0" width="1681" height="1600"/>
  </clipPath>
</defs>
<polygon clip-path="url(#clip2800)" points="
86.9921,1521.01 2352.76,1521.01 2352.76,47.2441 86.9921,47.2441 
  " fill="#ffffff" fill-rule="evenodd" fill-opacity="1"/>
<defs>
  <clipPath id="clip2802">
    <rect x="86" y="47" width="2267" height="1475"/>
  </clipPath>
</defs>
<polyline clip-path="url(#clip2802)" style="stroke:#000000; stroke-width:2; stroke-opacity:0.1; fill:none" points="
  151.118,1521.01 151.118,47.2441 
  "/>
<polyline clip-path="url(#clip2802)" style="stroke:#000000; stroke-width:2; stroke-opacity:0.1; fill:none" points="
  687.625,1521.01 687.625,47.2441 
  "/>
<polyline clip-path="url(#clip2802)" style="stroke:#000000; stroke-width:2; stroke-opacity:0.1; fill:none" points="
  1215.62,1521.01 1215.62,47.2441 
  "/>
<polyline clip-path="url(#clip2802)" style="stroke:#000000; stroke-width:2; stroke-opacity:0.1; fill:none" points="
  1752.12,1521.01 1752.12,47.2441 
  "/>
<polyline clip-path="url(#clip2802)" style="stroke:#000000; stroke-width:2; stroke-opacity:0.1; fill:none" points="
  2288.63,1521.01 2288.63,47.2441 
  "/>
<polyline clip-path="url(#clip2802)" style="stroke:#000000; stroke-width:2; stroke-opacity:0.1; fill:none" points="
  86.9921,1377.94 2352.76,1377.94 
  "/>
<polyline clip-path="url(#clip2802)" style="stroke:#000000; stroke-width:2; stroke-opacity:0.1; fill:none" points="
  86.9921,1172.75 2352.76,1172.75 
  "/>
<polyline clip-path="url(#clip2802)" style="stroke:#000000; stroke-width:2; stroke-opacity:0.1; fill:none" points="
  86.9921,967.563 2352.76,967.563 
  "/>
<polyline clip-path="url(#clip2802)" style="stroke:#000000; stroke-width:2; stroke-opacity:0.1; fill:none" points="
  86.9921,762.376 2352.76,762.376 
  "/>
<polyline clip-path="url(#clip2802)" style="stroke:#000000; stroke-width:2; stroke-opacity:0.1; fill:none" points="
  86.9921,557.19 2352.76,557.19 
  "/>
<polyline clip-path="url(#clip2802)" style="stroke:#000000; stroke-width:2; stroke-opacity:0.1; fill:none" points="
  86.9921,352.003 2352.76,352.003 
  "/>
<polyline clip-path="url(#clip2802)" style="stroke:#000000; stroke-width:2; stroke-opacity:0.1; fill:none" points="
  86.9921,146.817 2352.76,146.817 
  "/>
<polyline clip-path="url(#clip2800)" style="stroke:#000000; stroke-width:4; stroke-opacity:1; fill:none" points="
  86.9921,1521.01 2352.76,1521.01 
  "/>
<polyline clip-path="url(#clip2800)" style="stroke:#000000; stroke-width:4; stroke-opacity:1; fill:none" points="
  86.9921,1521.01 86.9921,47.2441 
  "/>
<polyline clip-path="url(#clip2800)" style="stroke:#000000; stroke-width:4; stroke-opacity:1; fill:none" points="
  151.118,1521.01 151.118,1498.9 
  "/>
<polyline clip-path="url(#clip2800)" style="stroke:#000000; stroke-width:4; stroke-opacity:1; fill:none" points="
  687.625,1521.01 687.625,1498.9 
  "/>
<polyline clip-path="url(#clip2800)" style="stroke:#000000; stroke-width:4; stroke-opacity:1; fill:none" points="
  1215.62,1521.01 1215.62,1498.9 
  "/>
<polyline clip-path="url(#clip2800)" style="stroke:#000000; stroke-width:4; stroke-opacity:1; fill:none" points="
  1752.12,1521.01 1752.12,1498.9 
  "/>
<polyline clip-path="url(#clip2800)" style="stroke:#000000; stroke-width:4; stroke-opacity:1; fill:none" points="
  2288.63,1521.01 2288.63,1498.9 
  "/>
<polyline clip-path="url(#clip2800)" style="stroke:#000000; stroke-width:4; stroke-opacity:1; fill:none" points="
  86.9921,1377.94 120.979,1377.94 
  "/>
<polyline clip-path="url(#clip2800)" style="stroke:#000000; stroke-width:4; stroke-opacity:1; fill:none" points="
  86.9921,1172.75 120.979,1172.75 
  "/>
<polyline clip-path="url(#clip2800)" style="stroke:#000000; stroke-width:4; stroke-opacity:1; fill:none" points="
  86.9921,967.563 120.979,967.563 
  "/>
<polyline clip-path="url(#clip2800)" style="stroke:#000000; stroke-width:4; stroke-opacity:1; fill:none" points="
  86.9921,762.376 120.979,762.376 
  "/>
<polyline clip-path="url(#clip2800)" style="stroke:#000000; stroke-width:4; stroke-opacity:1; fill:none" points="
  86.9921,557.19 120.979,557.19 
  "/>
<polyline clip-path="url(#clip2800)" style="stroke:#000000; stroke-width:4; stroke-opacity:1; fill:none" points="
  86.9921,352.003 120.979,352.003 
  "/>
<polyline clip-path="url(#clip2800)" style="stroke:#000000; stroke-width:4; stroke-opacity:1; fill:none" points="
  86.9921,146.817 120.979,146.817 
  "/>
<g clip-path="url(#clip2800)">
<text style="fill:#000000; fill-opacity:1; font-family:Arial,Helvetica Neue,Helvetica,sans-serif; font-size:48px; text-anchor:middle;" transform="rotate(0, 151.118, 1575.01)" x="151.118" y="1575.01">2018-07-27</text>
</g>
<g clip-path="url(#clip2800)">
<text style="fill:#000000; fill-opacity:1; font-family:Arial,Helvetica Neue,Helvetica,sans-serif; font-size:48px; text-anchor:middle;" transform="rotate(0, 687.625, 1575.01)" x="687.625" y="1575.01">2018-10-25</text>
</g>
<g clip-path="url(#clip2800)">
<text style="fill:#000000; fill-opacity:1; font-family:Arial,Helvetica Neue,Helvetica,sans-serif; font-size:48px; text-anchor:middle;" transform="rotate(0, 1215.62, 1575.01)" x="1215.62" y="1575.01">2019-01-25</text>
</g>
<g clip-path="url(#clip2800)">
<text style="fill:#000000; fill-opacity:1; font-family:Arial,Helvetica Neue,Helvetica,sans-serif; font-size:48px; text-anchor:middle;" transform="rotate(0, 1752.12, 1575.01)" x="1752.12" y="1575.01">2019-04-26</text>
</g>
<g clip-path="url(#clip2800)">
<text style="fill:#000000; fill-opacity:1; font-family:Arial,Helvetica Neue,Helvetica,sans-serif; font-size:48px; text-anchor:middle;" transform="rotate(0, 2288.63, 1575.01)" x="2288.63" y="1575.01">2019-07-26</text>
</g>
<g clip-path="url(#clip2800)">
<text style="fill:#000000; fill-opacity:1; font-family:Arial,Helvetica Neue,Helvetica,sans-serif; font-size:48px; text-anchor:end;" transform="rotate(0, 62.9921, 1395.44)" x="62.9921" y="1395.44">45</text>
</g>
<g clip-path="url(#clip2800)">
<text style="fill:#000000; fill-opacity:1; font-family:Arial,Helvetica Neue,Helvetica,sans-serif; font-size:48px; text-anchor:end;" transform="rotate(0, 62.9921, 1190.25)" x="62.9921" y="1190.25">50</text>
</g>
<g clip-path="url(#clip2800)">
<text style="fill:#000000; fill-opacity:1; font-family:Arial,Helvetica Neue,Helvetica,sans-serif; font-size:48px; text-anchor:end;" transform="rotate(0, 62.9921, 985.063)" x="62.9921" y="985.063">55</text>
</g>
<g clip-path="url(#clip2800)">
<text style="fill:#000000; fill-opacity:1; font-family:Arial,Helvetica Neue,Helvetica,sans-serif; font-size:48px; text-anchor:end;" transform="rotate(0, 62.9921, 779.876)" x="62.9921" y="779.876">60</text>
</g>
<g clip-path="url(#clip2800)">
<text style="fill:#000000; fill-opacity:1; font-family:Arial,Helvetica Neue,Helvetica,sans-serif; font-size:48px; text-anchor:end;" transform="rotate(0, 62.9921, 574.69)" x="62.9921" y="574.69">65</text>
</g>
<g clip-path="url(#clip2800)">
<text style="fill:#000000; fill-opacity:1; font-family:Arial,Helvetica Neue,Helvetica,sans-serif; font-size:48px; text-anchor:end;" transform="rotate(0, 62.9921, 369.503)" x="62.9921" y="369.503">70</text>
</g>
<g clip-path="url(#clip2800)">
<text style="fill:#000000; fill-opacity:1; font-family:Arial,Helvetica Neue,Helvetica,sans-serif; font-size:48px; text-anchor:end;" transform="rotate(0, 62.9921, 164.317)" x="62.9921" y="164.317">75</text>
</g>
<polyline clip-path="url(#clip2802)" style="stroke:#000000; stroke-width:12; stroke-opacity:1; fill:none" points="
  151.118,405.762 159.634,346.669 168.149,402.89 176.665,448.031 185.181,394.682 193.697,413.97 202.213,392.63 210.729,386.064 219.245,477.577 227.761,482.912 
  236.277,449.262 244.793,466.908 253.309,473.474 261.825,556.779 270.341,538.313 278.857,519.846 287.373,498.506 295.889,460.752 304.405,439.823 312.921,441.054 
  321.437,404.531 329.953,398.376 338.469,412.328 346.985,372.112 355.501,341.744 364.017,360.211 372.533,357.338 381.049,404.531 389.565,443.517 398.081,444.337 
  406.597,452.955 415.113,382.781 423.629,336.82 432.145,409.866 440.661,393.451 449.177,396.734 457.693,358.159 466.209,306.042 474.725,319.174 483.241,319.994 
  491.757,266.646 500.273,258.438 508.789,287.575 517.305,265.004 525.821,218.632 534.337,134.506 542.853,137.378 551.369,88.9544 559.885,174.312 568.401,173.902 
  576.917,175.953 585.433,148.458 593.949,221.915 602.465,312.197 610.981,297.013 619.497,278.957 628.013,273.212 636.529,362.263 645.045,407.404 653.561,388.116 
  662.077,386.064 670.593,498.506 679.109,482.502 687.625,461.573 696.141,450.903 704.657,473.474 713.173,508.766 721.689,544.468 730.205,610.949 738.721,633.519 
  747.237,635.161 755.753,671.684 764.269,693.844 772.785,734.881 781.301,754.579 789.817,765.249 798.333,939.247 806.849,916.266 815.365,907.648 823.881,907.648 
  832.397,895.337 840.913,1031.99 849.429,982.746 857.945,1155.51 866.461,1105.86 874.976,1108.73 883.492,1160.85 892.008,1113.25 900.524,1134.58 909.04,1051.69 
  917.556,1039.38 926.072,1054.15 934.588,1111.6 943.104,1065.64 951.62,1131.71 960.136,1105.04 968.652,1125.56 977.168,1066.87 985.684,1123.5 994.2,1177.67 
  1002.72,1327.05 1011.23,1287.65 1019.75,1341.82 1028.26,1353.72 1036.78,1479.3 1045.3,1327.87 1053.81,1393.94 1062.33,1364.39 1070.84,1361.11 1079.36,1314.74 
  1087.88,1292.17 1096.39,1256.47 1104.91,1233.48 1113.42,1181.78 1121.94,1075.9 1130.46,1066.46 1138.97,1107.5 1147.49,1151.82 1156,1086.16 1164.52,1077.95 
  1173.04,1087.8 1181.55,1016.81 1190.07,1067.28 1198.58,1065.23 1207.1,1044.3 1215.62,1021.32 1224.13,1091.08 1232.65,1036.92 1241.16,999.161 1249.68,1017.22 
  1258.2,956.893 1266.71,985.619 1275.23,1022.55 1283.74,1008.19 1292.26,1064.41 1300.78,1061.13 1309.29,1073.85 1317.81,1045.53 1326.32,1012.7 1334.84,991.775 
  1343.36,943.351 1351.87,922.832 1360.39,888.771 1368.9,887.13 1377.42,874.818 1385.94,947.865 1394.45,947.044 1402.97,887.95 1411.48,876.46 1420,934.733 
  1428.52,902.313 1437.03,903.544 1445.55,917.497 1454.06,899.441 1462.58,923.653 1471.1,894.106 1479.61,890.823 1488.13,833.781 1496.64,819.418 1505.16,823.111 
  1513.68,799.72 1522.19,802.182 1530.71,769.353 1539.22,763.197 1547.74,801.772 1556.26,810.8 1564.77,764.838 1573.29,786.588 1581.8,791.102 1590.32,756.631 
  1598.84,697.127 1607.35,656.5 1615.87,661.425 1624.38,676.198 1632.9,635.981 1641.42,581.812 1649.93,599.048 1658.45,573.194 1666.96,615.463 1675.48,602.741 
  1684,622.849 1692.51,596.175 1701.03,608.076 1709.54,598.227 1718.06,528.464 1726.58,503.841 1735.09,520.667 1743.61,548.572 1752.12,626.953 1760.64,618.746 
  1769.16,601.92 1777.67,614.642 1786.19,688.099 1794.7,682.764 1803.22,670.042 1811.74,704.924 1820.25,675.377 1828.77,692.613 1837.28,694.254 1845.8,719.697 
  1854.32,689.33 1862.83,679.481 1871.35,644.599 1879.86,649.113 1888.38,635.161 1896.9,639.675 1905.41,704.103 1913.93,848.144 1922.44,818.597 1930.96,797.668 
  1939.48,811.211 1947.99,902.313 1956.51,1029.12 1965.02,1039.38 1973.54,1029.94 1982.05,1103.81 1990.57,1066.46 1999.09,1009.01 2007.6,1038.97 2016.12,1038.56 
  2024.63,1125.97 2033.15,1079.18 2041.67,1069.75 2050.18,1093.55 2058.7,1012.7 2067.21,1018.45 2075.73,899.851 2084.25,867.842 2092.76,848.555 2101.28,851.427 
  2109.79,787.819 2118.31,785.767 2126.83,825.163 2135.34,799.72 2143.86,916.266 2152.37,871.535 2160.89,864.559 2169.41,858.403 2177.92,851.427 2186.44,744.73 
  2194.95,754.169 2203.47,753.758 2211.99,779.612 2220.5,860.045 2229.02,894.516 2237.53,955.251 2246.05,941.709 2254.57,917.497 2263.08,894.927 2271.6,931.45 
  2280.11,925.705 2288.63,918.318 
  "/>
<polyline clip-path="url(#clip2802)" style="stroke:#e26f46; stroke-width:8; stroke-opacity:1; fill:none" points="
  483.241,415.273 491.757,411.795 500.273,409.589 508.789,406.706 517.305,402.13 525.821,397.729 534.337,390.743 542.853,384.361 551.369,376.934 559.885,369.352 
  568.401,361.627 576.917,354.794 585.433,346.833 593.949,340.544 602.465,334.429 610.981,328.397 619.497,322.374 628.013,316.742 636.529,314.28 645.045,313.469 
  653.561,312.146 662.077,311.684 670.593,314.188 679.109,315.942 687.625,318.178 696.141,320.907 704.657,323.739 713.173,327.525 721.689,331.023 730.205,335.209 
  738.721,339.938 747.237,344.494 755.753,351.716 764.269,360.642 772.785,368.767 781.301,377.795 789.817,387.008 798.333,401.535 806.849,416.791 815.365,431.503 
  823.881,446.194 832.397,461.911 840.913,481.25 849.429,498.63 857.945,520.892 866.461,543.073 874.976,567.429 883.492,593.015 892.008,618.623 900.524,642.629 
  909.04,664.574 917.556,686.16 926.072,708.802 934.588,731.044 943.104,749.88 951.62,770.748 960.136,791.4 968.652,812.708 977.168,830.324 985.684,848.226 
  994.2,867.965 1002.72,891.49 1011.23,911.218 1019.75,932.701 1028.26,955.005 1036.78,980.715 1045.3,1002.08 1053.81,1024.2 1062.33,1044.7 1070.84,1063.46 
  1079.36,1080.49 1087.88,1096.91 1096.39,1111.53 1104.91,1125.02 1113.42,1136.2 1121.94,1144.23 1130.46,1151.76 1138.97,1155.96 1147.49,1161.85 1156,1166.32 
  1164.52,1170.57 1173.04,1175.39 1181.55,1175.01 1190.07,1177.12 1198.58,1174.86 1207.1,1173.32 1215.62,1171.14 1224.13,1169.39 1232.65,1167.49 1241.16,1164.1 
  1249.68,1163.24 1258.2,1161.18 1266.71,1159.46 1275.23,1157.24 1283.74,1155.8 1292.26,1154.12 1300.78,1153.02 1309.29,1151.73 1317.81,1151.19 1326.32,1148.42 
  1334.84,1143.78 1343.36,1134.18 1351.87,1125.06 1360.39,1113.74 1368.9,1102.07 1377.42,1086.96 1385.94,1077.46 1394.45,1066.29 1402.97,1054.38 1411.48,1042.26 
  1420,1032.76 1428.52,1023.01 1437.03,1014.19 1445.55,1006.29 1454.06,999.233 1462.58,995.427 1471.1,991.118 1479.61,985.701 1488.13,977.75 1496.64,971.082 
  1505.16,964.711 1513.68,957.509 1522.19,952.143 1530.71,944.695 1539.22,937.144 1547.74,931.08 1556.26,925.817 1564.77,917.661 1573.29,911.403 1581.8,906.202 
  1590.32,899.687 1598.84,893.193 1607.35,884.965 1615.87,875.937 1624.38,867.637 1632.9,856.926 1641.42,844.943 1649.93,833.073 1658.45,821.265 1666.96,811.334 
  1675.48,801.608 1684,793.595 1692.51,785.429 1701.03,778.412 1709.54,771.189 1718.06,762.53 1726.58,751.43 1735.09,740.77 1743.61,732.286 1752.12,726.048 
  1760.64,718.148 1769.16,710.638 1777.67,703.416 1786.19,697.681 1794.7,692.264 1803.22,685.924 1811.74,681.194 1820.25,675.808 1828.77,672.279 1837.28,669.15 
  1845.8,666.564 1854.32,663.805 1862.83,660.737 1871.35,657.618 1879.86,654.766 1888.38,650.601 1896.9,646.323 1905.41,644.804 1913.93,646.343 1922.44,647.031 
  1930.96,648.057 1939.48,650.909 1947.99,657.054 1956.51,666.246 1965.02,675.326 1973.54,685.175 1982.05,698.225 1990.57,709.91 1999.09,720.805 2007.6,731.393 
  2016.12,742.288 2024.63,754.866 2033.15,766.942 2041.67,778.483 2050.18,790.866 2058.7,802.972 2067.21,815.838 2075.73,825.317 2084.25,833.299 2092.76,838.839 
  2101.28,844.656 2109.79,849.303 2118.31,853.582 2126.83,857.008 2135.34,859.932 2143.86,866.088 2152.37,870.253 2160.89,874.983 2169.41,879.127 2177.92,883.057 
  2186.44,883.682 2194.95,885.303 2203.47,887.16 2211.99,890.536 2220.5,895.809 2229.02,902.293 2237.53,910.182 2246.05,916.122 2254.57,917.856 2263.08,919.764 
  2271.6,923.109 2280.11,925.971 2288.63,926.371 
  "/>
<polyline clip-path="url(#clip2802)" style="stroke:#3da44d; stroke-width:8; stroke-opacity:1; fill:none" points="
  483.241,415.273 491.757,408.023 500.273,400.726 508.789,395.206 517.305,388.855 525.821,380.551 534.337,368.549 542.853,357.272 551.369,344.184 559.885,335.897 
  568.401,327.995 576.917,320.578 585.433,312.182 593.949,307.779 602.465,307.995 610.981,307.459 619.497,306.069 628.013,304.466 636.529,307.285 645.045,312.169 
  653.561,315.874 662.077,319.298 670.593,328.04 679.109,335.574 687.625,341.721 696.141,347.047 704.657,353.214 713.173,360.802 721.689,369.761 730.205,381.526 
  738.721,393.819 747.237,405.591 755.753,418.572 764.269,431.999 772.785,446.774 781.301,461.789 789.817,476.592 798.333,499.16 806.849,519.507 815.365,538.441 
  823.881,556.451 832.397,572.982 840.913,595.373 849.429,614.269 857.945,640.671 866.461,663.363 874.976,685.088 883.492,708.296 892.008,728.05 900.524,747.881 
  909.04,762.701 917.556,776.197 926.072,789.756 934.588,805.456 943.104,818.148 951.62,833.444 960.136,846.692 968.652,860.295 977.168,870.372 985.684,882.72 
  994.2,897.108 1002.72,918.081 1011.23,936.109 1019.75,955.9 1028.26,975.306 1036.78,999.891 1045.3,1015.89 1053.81,1034.33 1062.33,1050.43 1070.84,1065.59 
  1079.36,1077.74 1087.88,1088.2 1096.39,1096.41 1104.91,1103.1 1113.42,1106.93 1121.94,1105.42 1130.46,1103.52 1138.97,1103.71 1147.49,1106.06 1156,1105.09 
  1164.52,1103.77 1173.04,1102.99 1181.55,1098.78 1190.07,1097.25 1198.58,1095.68 1207.1,1093.18 1215.62,1089.67 1224.13,1089.74 1232.65,1087.16 1241.16,1082.87 
  1249.68,1079.67 1258.2,1073.68 1266.71,1069.38 1275.23,1067.1 1283.74,1064.23 1292.26,1064.24 1300.78,1064.08 1309.29,1064.56 1317.81,1063.63 1326.32,1061.15 
  1334.84,1057.76 1343.36,1052.18 1351.87,1045.87 1360.39,1038.21 1368.9,1030.84 1377.42,1023.23 1385.94,1019.55 1394.45,1016.02 1402.97,1009.77 1411.48,1003.27 
  1420,999.922 1428.52,995.161 1437.03,990.692 1445.55,987.121 1454.06,982.844 1462.58,979.957 1471.1,975.769 1479.61,971.625 1488.13,964.901 1496.64,957.805 
  1505.16,951.234 1513.68,943.843 1522.19,936.933 1530.71,928.758 1539.22,920.682 1547.74,914.882 1556.26,909.804 1564.77,902.733 1573.29,897.067 1581.8,891.898 
  1590.32,885.3 1598.84,876.121 1607.35,865.408 1615.87,855.457 1624.38,846.713 1632.9,836.433 1641.42,824.013 1649.93,813.039 1658.45,801.339 1666.96,792.272 
  1675.48,783.027 1684,775.213 1692.51,766.479 1701.03,758.752 1709.54,750.922 1718.06,740.07 1726.58,728.547 1735.09,718.406 1743.61,710.122 1752.12,706.065 
  1760.64,701.805 1769.16,696.933 1777.67,692.919 1786.19,692.684 1794.7,692.2 1803.22,691.119 1811.74,691.792 1820.25,690.992 1828.77,691.071 1837.28,691.226 
  1845.8,692.615 1854.32,692.455 1862.83,691.822 1871.35,689.518 1879.86,687.547 1888.38,684.992 1896.9,682.781 1905.41,683.821 1913.93,691.837 1922.44,698.02 
  1930.96,702.881 1939.48,708.166 1947.99,717.636 1956.51,732.831 1965.02,747.784 1973.54,761.548 1982.05,778.243 1990.57,792.303 1999.09,802.874 2007.6,814.391 
  2016.12,825.326 2024.63,839.991 2033.15,851.659 2041.67,862.297 2050.18,873.578 2058.7,880.364 2067.21,887.1 2075.73,887.722 2084.25,886.752 2092.76,884.889 
  2101.28,883.257 2109.79,878.601 2118.31,874.073 2126.83,871.687 2135.34,868.176 2143.86,870.522 2152.37,870.572 2160.89,870.278 2169.41,869.699 2177.92,868.808 
  2186.44,862.755 2194.95,857.458 2203.47,852.4 2211.99,848.849 2220.5,849.395 2229.02,851.596 2237.53,856.653 2246.05,860.802 2254.57,863.567 2263.08,865.097 
  2271.6,868.334 2280.11,871.132 2288.63,873.434 
  "/>
<polyline clip-path="url(#clip2802)" style="stroke:#c271d2; stroke-width:8; stroke-opacity:1; fill:none" points="
  483.241,400.765 491.757,393.515 500.273,386.034 508.789,380.082 517.305,373.17 525.821,364.219 534.337,351.379 542.853,339.02 551.369,324.609 559.885,314.726 
  568.401,305.191 576.917,296.134 585.433,286.069 593.949,279.975 602.465,278.593 610.981,276.768 619.497,274.356 628.013,271.958 636.529,274.178 645.045,278.721 
  653.561,282.362 662.077,285.968 670.593,295.081 679.109,303.292 687.625,310.396 696.141,316.87 704.657,324.312 713.173,333.338 721.689,343.921 730.205,357.575 
  738.721,372.127 747.237,386.528 755.753,402.489 764.269,419.178 772.785,437.433 781.301,456.254 789.817,475.154 798.333,502.092 806.849,527.201 815.365,551.145 
  823.881,574.372 832.397,596.281 840.913,624.09 849.429,648.553 857.945,680.596 866.461,709.131 874.976,736.724 883.492,765.672 892.008,791.049 900.524,816.218 
  909.04,836.172 917.556,854.455 926.072,872.406 934.588,892.055 943.104,908.376 951.62,927.002 960.136,943.309 968.652,959.609 977.168,972.008 985.684,986.309 
  994.2,1002.38 1002.72,1024.77 1011.23,1044.1 1019.75,1065.1 1028.26,1085.64 1036.78,1111.22 1045.3,1128.15 1053.81,1147.27 1062.33,1163.86 1070.84,1179.3 
  1079.36,1191.55 1087.88,1201.88 1096.39,1209.66 1104.91,1215.61 1113.42,1218.38 1121.94,1215.44 1130.46,1211.65 1138.97,1209.49 1147.49,1209.28 1156,1205.59 
  1164.52,1201.28 1173.04,1197.24 1181.55,1189.51 1190.07,1184.25 1198.58,1178.8 1207.1,1172.43 1215.62,1165.01 1224.13,1161.11 1232.65,1154.64 1241.16,1146.43 
  1249.68,1139.27 1258.2,1129.2 1266.71,1120.64 1275.23,1113.96 1283.74,1106.69 1292.26,1102.23 1300.78,1097.7 1309.29,1093.83 1317.81,1088.65 1326.32,1081.9 
  1334.84,1074.26 1343.36,1064.48 1351.87,1054.17 1360.39,1042.64 1368.9,1031.59 1377.42,1020.5 1385.94,1013.72 1394.45,1007.36 1402.97,998.657 1411.48,989.979 
  1420,984.733 1428.52,978.37 1437.03,972.542 1445.55,967.825 1454.06,962.613 1462.58,958.926 1471.1,953.984 1479.61,949.091 1488.13,941.681 1496.64,933.957 
  1505.16,926.739 1513.68,918.691 1522.19,911.114 1530.71,902.197 1539.22,893.344 1547.74,886.74 1556.26,880.873 1564.77,873.02 1573.29,866.626 1581.8,860.758 
  1590.32,853.462 1598.84,843.581 1607.35,832.035 1615.87,821.131 1624.38,811.387 1632.9,800.087 1641.42,786.667 1649.93,774.672 1658.45,761.995 1666.96,751.956 
  1675.48,741.781 1684,733.061 1692.51,723.43 1701.03,714.779 1709.54,705.989 1718.06,694.149 1726.58,681.53 1735.09,670.274 1743.61,660.898 1752.12,655.76 
  1760.64,650.526 1769.16,644.856 1777.67,640.173 1786.19,639.426 1794.7,638.698 1803.22,637.614 1811.74,638.541 1820.25,638.257 1828.77,639.077 1837.28,640.149 
  1845.8,642.615 1854.32,643.725 1862.83,644.49 1871.35,643.703 1879.86,643.288 1888.38,642.332 1896.9,641.799 1905.41,644.617 1913.93,654.536 1922.44,662.939 
  1930.96,670.287 1939.48,678.246 1947.99,690.509 1956.51,708.659 1965.02,726.86 1973.54,744.159 1982.05,764.58 1990.57,782.543 1999.09,797.133 2007.6,812.653 
  2016.12,827.637 2024.63,846.353 2033.15,862.173 2041.67,876.944 2050.18,892.313 2058.7,903.134 2067.21,913.645 2075.73,917.743 2084.25,919.818 2092.76,920.562 
  2101.28,921.176 2109.79,918.403 2118.31,915.304 2126.83,913.918 2135.34,911.123 2143.86,913.871 2152.37,914.137 2160.89,913.859 2169.41,913.051 2177.92,911.699 
  2186.44,904.952 2194.95,898.634 2203.47,892.217 2211.99,886.971 2220.5,885.484 2229.02,885.421 2237.53,888.004 2246.05,889.542 2254.57,889.609 2263.08,888.49 
  2271.6,889.06 2280.11,889.187 2288.63,888.814 
  "/>
<polyline clip-path="url(#clip2802)" style="stroke:#ac8d18; stroke-width:8; stroke-opacity:1; fill:none" points="
  815.365,357.221 823.881,357.994 832.397,359.247 840.913,361.038 849.429,363.336 857.945,366.305 866.461,369.939 874.976,374.356 883.492,379.572 892.008,385.615 
  900.524,392.447 909.04,400.02 917.556,408.304 926.072,417.354 934.588,427.116 943.104,437.503 951.62,448.561 960.136,460.287 968.652,472.686 977.168,485.587 
  985.684,498.956 994.2,512.852 1002.72,527.347 1011.23,542.272 1019.75,557.691 1028.26,573.612 1036.78,590.107 1045.3,607.066 1053.81,624.483 1062.33,642.325 
  1070.84,660.531 1079.36,679.045 1087.88,697.855 1096.39,716.85 1104.91,735.96 1113.42,755.146 1121.94,774.307 1130.46,793.425 1138.97,812.286 1147.49,830.913 
  1156,849.283 1164.52,867.392 1173.04,885.229 1181.55,902.573 1190.07,919.535 1198.58,935.885 1207.1,951.641 1215.62,966.734 1224.13,981.143 1232.65,994.865 
  1241.16,1007.9 1249.68,1020.37 1258.2,1032.24 1266.71,1043.51 1275.23,1054.16 1283.74,1064.31 1292.26,1073.9 1300.78,1082.94 1309.29,1091.41 1317.81,1099.43 
  1326.32,1106.94 1334.84,1113.84 1343.36,1119.9 1351.87,1125.25 1360.39,1129.77 1368.9,1133.45 1377.42,1136.11 1385.94,1137.99 1394.45,1139.04 1402.97,1139.29 
  1411.48,1138.76 1420,1137.56 1428.52,1135.72 1437.03,1133.28 1445.55,1130.31 1454.06,1126.89 1462.58,1123.17 1471.1,1119.15 1479.61,1114.9 1488.13,1110.29 
  1496.64,1105.41 1505.16,1100.27 1513.68,1094.82 1522.19,1089.25 1530.71,1083.44 1539.22,1077.49 1547.74,1071.44 1556.26,1065.31 1564.77,1059.01 1573.29,1052.61 
  1581.8,1046.16 1590.32,1039.57 1598.84,1032.87 1607.35,1026.01 1615.87,1018.98 1624.38,1011.78 1632.9,1004.35 1641.42,996.644 1649.93,988.677 1658.45,980.429 
  1666.96,972.002 1675.48,963.448 1684,954.933 1692.51,946.442 1701.03,938.059 1709.54,929.787 1718.06,921.676 1726.58,913.525 1735.09,905.387 1743.61,897.335 
  1752.12,889.43 1760.64,881.564 1769.16,873.755 1777.67,865.986 1786.19,858.27 1794.7,850.596 1803.22,842.859 1811.74,835.11 1820.25,827.363 1828.77,819.726 
  1837.28,812.178 1845.8,804.724 1854.32,797.382 1862.83,790.097 1871.35,782.92 1879.86,775.86 1888.38,768.848 1896.9,761.861 1905.41,755.04 1913.93,748.413 
  1922.44,741.934 1930.96,735.643 1939.48,729.586 1947.99,723.888 1956.51,718.646 1965.02,713.838 1973.54,709.544 1982.05,705.876 1990.57,702.797 1999.09,700.286 
  2007.6,698.287 2016.12,696.804 2024.63,695.836 2033.15,695.374 2041.67,695.376 2050.18,695.868 2058.7,696.879 2067.21,698.489 2075.73,700.603 2084.25,703.128 
  2092.76,705.948 2101.28,709.11 2109.79,712.577 2118.31,716.331 2126.83,720.314 2135.34,724.506 2143.86,729.01 2152.37,733.737 2160.89,738.716 2169.41,743.887 
  2177.92,749.235 2186.44,754.663 2194.95,760.2 2203.47,765.861 2211.99,771.684 2220.5,777.71 2229.02,784.002 2237.53,790.599 2246.05,797.382 2254.57,804.169 
  2263.08,810.988 2271.6,817.864 2280.11,824.741 2288.63,831.474 
  "/>
<polygon clip-path="url(#clip2800)" points="
1891.01,493.644 2280.76,493.644 2280.76,130.764 1891.01,130.764 
  " fill="#ffffff" fill-rule="evenodd" fill-opacity="1"/>
<polyline clip-path="url(#clip2800)" style="stroke:#000000; stroke-width:4; stroke-opacity:1; fill:none" points="
  1891.01,493.644 2280.76,493.644 2280.76,130.764 1891.01,130.764 1891.01,493.644 
  "/>
<polyline clip-path="url(#clip2800)" style="stroke:#000000; stroke-width:12; stroke-opacity:1; fill:none" points="
  1915.01,191.244 2059.01,191.244 
  "/>
<g clip-path="url(#clip2800)">
<text style="fill:#000000; fill-opacity:1; font-family:Arial,Helvetica Neue,Helvetica,sans-serif; font-size:48px; text-anchor:start;" transform="rotate(0, 2083.01, 208.744)" x="2083.01" y="208.744">Crude</text>
</g>
<polyline clip-path="url(#clip2800)" style="stroke:#e26f46; stroke-width:8; stroke-opacity:1; fill:none" points="
  1915.01,251.724 2059.01,251.724 
  "/>
<g clip-path="url(#clip2800)">
<text style="fill:#000000; fill-opacity:1; font-family:Arial,Helvetica Neue,Helvetica,sans-serif; font-size:48px; text-anchor:start;" transform="rotate(0, 2083.01, 269.224)" x="2083.01" y="269.224">SMA</text>
</g>
<polyline clip-path="url(#clip2800)" style="stroke:#3da44d; stroke-width:8; stroke-opacity:1; fill:none" points="
  1915.01,312.204 2059.01,312.204 
  "/>
<g clip-path="url(#clip2800)">
<text style="fill:#000000; fill-opacity:1; font-family:Arial,Helvetica Neue,Helvetica,sans-serif; font-size:48px; text-anchor:start;" transform="rotate(0, 2083.01, 329.704)" x="2083.01" y="329.704">EMA</text>
</g>
<polyline clip-path="url(#clip2800)" style="stroke:#c271d2; stroke-width:8; stroke-opacity:1; fill:none" points="
  1915.01,372.684 2059.01,372.684 
  "/>
<g clip-path="url(#clip2800)">
<text style="fill:#000000; fill-opacity:1; font-family:Arial,Helvetica Neue,Helvetica,sans-serif; font-size:48px; text-anchor:start;" transform="rotate(0, 2083.01, 390.184)" x="2083.01" y="390.184">WMA</text>
</g>
<polyline clip-path="url(#clip2800)" style="stroke:#ac8d18; stroke-width:8; stroke-opacity:1; fill:none" points="
  1915.01,433.164 2059.01,433.164 
  "/>
<g clip-path="url(#clip2800)">
<text style="fill:#000000; fill-opacity:1; font-family:Arial,Helvetica Neue,Helvetica,sans-serif; font-size:48px; text-anchor:start;" transform="rotate(0, 2083.01, 450.664)" x="2083.01" y="450.664">TRIMA</text>
</g>
</svg>
